<svg width="18" height="18" viewBox="0 0 18 18" fill="none" xmlns="http://www.w3.org/2000/svg">
<path d="M14.8425 11.5575C15.555 9.93 15.555 8.0625 14.8425 6.4425L12.7875 7.3725C13.2375 8.4075 13.2375 9.585 12.795 10.6275L14.8425 11.5575ZM11.565 3.1575C10.7571 2.80503 9.88518 2.62311 9.00375 2.62311C8.12232 2.62311 7.25039 2.80503 6.4425 3.1575L7.3725 5.205C8.415 4.7625 9.5925 4.7625 10.635 5.2125L11.565 3.1575ZM3.1575 6.435C2.80502 7.2442 2.62311 8.11736 2.62311 9C2.62311 9.88264 2.80502 10.7558 3.1575 11.565L5.2125 10.6275C4.7625 9.5925 4.7625 8.4075 5.2125 7.365L3.1575 6.435ZM6.4425 14.8425C7.25044 15.1956 8.12283 15.3772 9.00454 15.3759C9.88624 15.3746 10.7581 15.1904 11.565 14.835L10.635 12.7875C10.1213 13.0095 9.56785 13.1246 9.00827 13.1259C8.44869 13.1272 7.8947 13.0146 7.38 12.795L6.4425 14.8425ZM9 1.5C9.98491 1.5 10.9602 1.69399 11.8701 2.0709C12.7801 2.44781 13.6069 3.00026 14.3033 3.6967C14.9997 4.39314 15.5522 5.21993 15.9291 6.12987C16.306 7.03982 16.5 8.01509 16.5 9C16.5 10.9891 15.7098 12.8968 14.3033 14.3033C12.8968 15.7098 10.9891 16.5 9 16.5C8.01509 16.5 7.03982 16.306 6.12987 15.9291C5.21993 15.5522 4.39314 14.9997 3.6967 14.3033C2.29018 12.8968 1.5 10.9891 1.5 9C1.5 7.01088 2.29018 5.10322 3.6967 3.6967C5.10322 2.29018 7.01088 1.5 9 1.5ZM9 6C8.20435 6 7.44129 6.31607 6.87868 6.87868C6.31607 7.44129 6 8.20435 6 9C6 9.79565 6.31607 10.5587 6.87868 11.1213C7.44129 11.6839 8.20435 12 9 12C9.79565 12 10.5587 11.6839 11.1213 11.1213C11.6839 10.5587 12 9.79565 12 9C12 8.20435 11.6839 7.44129 11.1213 6.87868C10.5587 6.31607 9.79565 6 9 6Z" fill="white"/>
</svg>
