<svg width="16" height="16" viewBox="0 0 16 16" fill="none" xmlns="http://www.w3.org/2000/svg">
<g id="uiw:mail">
<path id="Vector" fill-rule="evenodd" clip-rule="evenodd" d="M5.879 9.02273L8.0015 10.5062L10.0475 9.06337L14.6337 13.6887C14.513 13.7285 14.384 13.75 14.2498 13.75H1.75025C1.58525 13.75 1.42775 13.717 1.283 13.658L5.879 9.02273ZM15.5 5.2216V12.472C15.5 12.6613 15.4595 12.8407 15.3875 13.0025L10.892 8.46843L15.5 5.2216ZM0.500001 5.26223L5.0315 8.4301L0.579501 12.9212C0.526773 12.7776 0.499841 12.6254 0.500001 12.472V5.263V5.26223ZM14.2498 2.25C14.9397 2.25 15.5 2.82193 15.5 3.52803V3.9773L7.9985 9.26347L0.500001 4.021V3.52803C0.500001 2.8227 1.0595 2.25 1.75025 2.25H14.2498Z" fill="#D6E0E4"/>
</g>
</svg>
