<svg width="16" height="16" viewBox="0 0 16 16" fill="none" xmlns="http://www.w3.org/2000/svg">
<path d="M13.8425 10.5575C14.555 8.93 14.555 7.0625 13.8425 5.4425L11.7875 6.3725C12.2375 7.4075 12.2375 8.585 11.795 9.6275L13.8425 10.5575ZM10.565 2.1575C9.75712 1.80503 8.88518 1.62311 8.00375 1.62311C7.12232 1.62311 6.25039 1.80503 5.4425 2.1575L6.3725 4.205C7.415 3.7625 8.5925 3.7625 9.635 4.2125L10.565 2.1575ZM2.1575 5.435C1.80502 6.2442 1.62311 7.11736 1.62311 8C1.62311 8.88264 1.80502 9.7558 2.1575 10.565L4.2125 9.6275C3.7625 8.5925 3.7625 7.4075 4.2125 6.365L2.1575 5.435ZM5.4425 13.8425C6.25044 14.1956 7.12283 14.3772 8.00454 14.3759C8.88624 14.3746 9.7581 14.1904 10.565 13.835L9.635 11.7875C9.12132 12.0095 8.56785 12.1246 8.00827 12.1259C7.44869 12.1272 6.8947 12.0146 6.38 11.795L5.4425 13.8425ZM8 0.5C8.98491 0.5 9.96018 0.693993 10.8701 1.0709C11.7801 1.44781 12.6069 2.00026 13.3033 2.6967C13.9997 3.39314 14.5522 4.21993 14.9291 5.12987C15.306 6.03982 15.5 7.01509 15.5 8C15.5 9.98912 14.7098 11.8968 13.3033 13.3033C11.8968 14.7098 9.98912 15.5 8 15.5C7.01509 15.5 6.03982 15.306 5.12987 14.9291C4.21993 14.5522 3.39314 13.9997 2.6967 13.3033C1.29018 11.8968 0.5 9.98912 0.5 8C0.5 6.01088 1.29018 4.10322 2.6967 2.6967C4.10322 1.29018 6.01088 0.5 8 0.5ZM8 5C7.20435 5 6.44129 5.31607 5.87868 5.87868C5.31607 6.44129 5 7.20435 5 8C5 8.79565 5.31607 9.55871 5.87868 10.1213C6.44129 10.6839 7.20435 11 8 11C8.79565 11 9.55871 10.6839 10.1213 10.1213C10.6839 9.55871 11 8.79565 11 8C11 7.20435 10.6839 6.44129 10.1213 5.87868C9.55871 5.31607 8.79565 5 8 5Z" fill="white"/>
</svg>
