<svg width="14" height="14" viewBox="0 0 14 14" fill="none" xmlns="http://www.w3.org/2000/svg">
<path d="M8.25713 1.43992C7.92689 0.319506 6.33991 0.319507 6.00967 1.43992L5.92958 1.71163C5.71857 2.42753 4.90088 2.76623 4.24546 2.40922L3.9967 2.27372C2.97094 1.71498 1.84877 2.83715 2.40751 3.86291L2.54301 4.11167C2.90002 4.76709 2.56132 5.58478 1.84542 5.79579L1.57371 5.87588C0.453295 6.20612 0.453296 7.7931 1.57371 8.12334L1.84542 8.20343C2.56132 8.41443 2.90002 9.23213 2.54301 9.88755L2.40751 10.1363C1.84877 11.1621 2.97094 12.2842 3.9967 11.7255L4.24546 11.59C4.90088 11.233 5.71857 11.5717 5.92958 12.2876L6.00967 12.5593C6.33991 13.6797 7.92689 13.6797 8.25713 12.5593L8.33721 12.2876C8.54822 11.5717 9.36592 11.233 10.0213 11.59L10.2701 11.7255C11.2959 12.2842 12.418 11.1621 11.8593 10.1363L11.7238 9.88755C11.3668 9.23213 11.7055 8.41443 12.4214 8.20343L12.6931 8.12334C13.8135 7.7931 13.8135 6.20612 12.6931 5.87588L12.4214 5.79579C11.7055 5.58478 11.3668 4.76709 11.7238 4.11167L11.8593 3.86291C12.418 2.83715 11.2959 1.71498 10.2701 2.27372L10.0213 2.40922C9.36592 2.76623 8.54822 2.42753 8.33721 1.71163L8.25713 1.43992ZM7.1334 9.34266C5.83937 9.34266 4.79035 8.29364 4.79035 6.99961C4.79035 5.70558 5.83937 4.65656 7.1334 4.65656C8.42743 4.65656 9.47645 5.70558 9.47645 6.99961C9.47645 8.29364 8.42743 9.34266 7.1334 9.34266Z" fill="#4192D9"/>
</svg>
