<svg width="32" height="32" viewBox="0 0 32 32" fill="none" xmlns="http://www.w3.org/2000/svg">
<rect x="1.75" y="3.75" width="27.5" height="22.5" rx="2.25" stroke="#4192D9" stroke-width="1.5"/>
<rect x="5.5" y="7.5" width="20" height="5" rx="0.5" stroke="#4192D9"/>
<rect x="5.5" y="15.5" width="3" height="3" rx="0.5" stroke="#4192D9"/>
<rect x="5.5" y="20.5" width="3" height="3" rx="0.5" stroke="#4192D9"/>
<rect x="10.5" y="20.5" width="3" height="3" rx="0.5" stroke="#4192D9"/>
<rect x="10.5" y="15.5" width="3" height="3" rx="0.5" stroke="#4192D9"/>
<rect x="15.5" y="15.5" width="3" height="3" rx="0.5" stroke="#4192D9"/>
<rect x="20.5" y="15.5" width="3" height="3" rx="0.5" stroke="#4192D9"/>
<rect x="15.5" y="20.5" width="3" height="3" rx="0.5" stroke="#4192D9"/>
<circle cx="24" cy="23" r="7" fill="white"/>
<path d="M24 15.6875C22.5537 15.6875 21.1399 16.1164 19.9374 16.9199C18.7349 17.7234 17.7976 18.8654 17.2441 20.2016C16.6907 21.5378 16.5459 23.0081 16.828 24.4266C17.1102 25.8451 17.8066 27.148 18.8293 28.1707C19.852 29.1934 21.1549 29.8898 22.5734 30.172C23.9919 30.4541 25.4622 30.3093 26.7984 29.7559C28.1346 29.2024 29.2766 28.2651 30.0801 27.0626C30.8836 25.8601 31.3125 24.4463 31.3125 23C31.3088 21.0617 30.5372 19.2039 29.1666 17.8334C27.7961 16.4628 25.9383 15.6912 24 15.6875ZM24 29.1875C22.7762 29.1875 21.5799 28.8246 20.5624 28.1447C19.5449 27.4648 18.7518 26.4985 18.2835 25.3679C17.8152 24.2372 17.6926 22.9931 17.9314 21.7929C18.1701 20.5926 18.7594 19.4901 19.6248 18.6248C20.4901 17.7594 21.5926 17.1701 22.7929 16.9314C23.9931 16.6926 25.2372 16.8152 26.3679 17.2835C27.4985 17.7518 28.4648 18.5449 29.1447 19.5624C29.8246 20.5799 30.1875 21.7762 30.1875 23C30.1856 24.6405 29.5331 26.2132 28.3732 27.3732C27.2132 28.5331 25.6405 29.1856 24 29.1875ZM26.8125 24.4062C26.8107 24.9278 26.6026 25.4275 26.2338 25.7963C25.865 26.1651 25.3653 26.3731 24.8438 26.375H24.5625V26.9375C24.5625 27.0867 24.5032 27.2298 24.3978 27.3352C24.2923 27.4407 24.1492 27.5 24 27.5C23.8508 27.5 23.7077 27.4407 23.6023 27.3352C23.4968 27.2298 23.4375 27.0867 23.4375 26.9375V26.375H22.3125C22.1633 26.375 22.0202 26.3157 21.9148 26.2102C21.8093 26.1048 21.75 25.9617 21.75 25.8125C21.75 25.6633 21.8093 25.5202 21.9148 25.4148C22.0202 25.3093 22.1633 25.25 22.3125 25.25H24.8438C25.0675 25.25 25.2821 25.1611 25.4404 25.0029C25.5986 24.8446 25.6875 24.63 25.6875 24.4062C25.6875 24.1825 25.5986 23.9679 25.4404 23.8096C25.2821 23.6514 25.0675 23.5625 24.8438 23.5625H23.1563C22.6341 23.5625 22.1333 23.3551 21.7641 22.9859C21.3949 22.6167 21.1875 22.1159 21.1875 21.5938C21.1875 21.0716 21.3949 20.5708 21.7641 20.2016C22.1333 19.8324 22.6341 19.625 23.1563 19.625H23.4375V19.0625C23.4375 18.9133 23.4968 18.7702 23.6023 18.6648C23.7077 18.5593 23.8508 18.5 24 18.5C24.1492 18.5 24.2923 18.5593 24.3978 18.6648C24.5032 18.7702 24.5625 18.9133 24.5625 19.0625V19.625H25.6875C25.8367 19.625 25.9798 19.6843 26.0853 19.7898C26.1907 19.8952 26.25 20.0383 26.25 20.1875C26.25 20.3367 26.1907 20.4798 26.0853 20.5852C25.9798 20.6907 25.8367 20.75 25.6875 20.75H23.1563C22.9325 20.75 22.7179 20.8389 22.5596 20.9971C22.4014 21.1554 22.3125 21.37 22.3125 21.5938C22.3125 21.8175 22.4014 22.0321 22.5596 22.1904C22.7179 22.3486 22.9325 22.4375 23.1563 22.4375H24.8438C25.3653 22.4394 25.865 22.6474 26.2338 23.0162C26.6026 23.385 26.8107 23.8847 26.8125 24.4062Z" fill="#4192D9"/>
</svg>
