<svg xmlns="http://www.w3.org/2000/svg">
<style xmlns="http://www.w3.org/2000/svg">
g { display: none; }
g:target { display: inline; }
</style>

<g id="gray"><use xlink:href="#close-s" xmlns:xlink="http://www.w3.org/1999/xlink" fill="#708699"/></g>
<g id="blue"><use xlink:href="#close-s" xmlns:xlink="http://www.w3.org/1999/xlink" fill="#4192D9"/></g>

<g id="gray2"><use xlink:href="#close2-s" xmlns:xlink="http://www.w3.org/1999/xlink" filter="url(#filter0_i_2232_9277)"/></g>

<symbol id="close-s" viewBox="0 0 20 20">
    <path fill-rule="evenodd" clip-rule="evenodd" d="M11.1784 10L15.5892 5.58921C15.915 5.26338 15.915 4.73671 15.5892 4.41088C15.2634 4.08505 14.7367 4.08505 14.4109 4.41088L10 8.82171L5.58921 4.41088C5.26338 4.08505 4.73671 4.08505 4.41088 4.41088C4.08505 4.73671 4.08505 5.26338 4.41088 5.58921L8.82171 10L4.41088 14.4109C4.08505 14.7367 4.08505 15.2634 4.41088 15.5892C4.57338 15.7517 4.78671 15.8334 5.00005 15.8334C5.21338 15.8334 5.42671 15.7517 5.58921 15.5892L10 11.1784L14.4109 15.5892C14.5734 15.7517 14.7867 15.8334 15 15.8334C15.2134 15.8334 15.4267 15.7517 15.5892 15.5892C15.915 15.2634 15.915 14.7367 15.5892 14.4109L11.1784 10Z"/>
</symbol>

<symbol id="close2-s" viewBox="0 0 16 16">
    <path fill-rule="evenodd" clip-rule="evenodd" d="M8.943 8.00033L12.4717 4.47166C12.7323 4.211 12.7323 3.78966 12.4717 3.529C12.211 3.26833 11.7897 3.26833 11.529 3.529L8.00033 7.05766L4.47166 3.529C4.211 3.26833 3.78966 3.26833 3.529 3.529C3.26833 3.78966 3.26833 4.211 3.529 4.47166L7.05766 8.00033L3.529 11.529C3.26833 11.7897 3.26833 12.211 3.529 12.4717C3.659 12.6017 3.82966 12.667 4.00033 12.667C4.171 12.667 4.34166 12.6017 4.47166 12.4717L8.00033 8.943L11.529 12.4717C11.659 12.6017 11.8297 12.667 12.0003 12.667C12.171 12.667 12.3417 12.6017 12.4717 12.4717C12.7323 12.211 12.7323 11.7897 12.4717 11.529L8.943 8.00033Z" fill="#D6E0E4"/>
</symbol>


<defs>
    <filter id="filter0_i_2232_9277" x="3.3335" y="3.3335" width="9.3335" height="10.3335" filterUnits="userSpaceOnUse" color-interpolation-filters="sRGB">
    <feFlood flood-opacity="0" result="BackgroundImageFix"/>
    <feBlend mode="normal" in="SourceGraphic" in2="BackgroundImageFix" result="shape"/>
    <feColorMatrix in="SourceAlpha" type="matrix" values="0 0 0 0 0 0 0 0 0 0 0 0 0 0 0 0 0 0 127 0" result="hardAlpha"/>
    <feOffset dy="1"/>
    <feGaussianBlur stdDeviation="0.5"/>
    <feComposite in2="hardAlpha" operator="arithmetic" k2="-1" k3="1"/>
    <feColorMatrix type="matrix" values="0 0 0 0 0.439216 0 0 0 0 0.52549 0 0 0 0 0.6 0 0 0 0.73 0"/>
    <feBlend mode="normal" in2="shape" result="effect1_innerShadow_2232_9277"/>
    </filter>
</defs>

</svg>
