<svg width="13" height="13" viewBox="0 0 13 13" fill="none" xmlns="http://www.w3.org/2000/svg">
<path d="M12.496 1.31905C12.2494 1.26615 12.0069 1.4232 11.9542 1.66961L11.6225 3.21712C10.5667 1.41593 8.62879 0.285645 6.50479 0.285645C3.23378 0.285645 0.572632 2.94676 0.572632 6.21782C0.572632 6.46981 0.776917 6.67414 1.02895 6.67414C1.28095 6.67414 1.48527 6.46981 1.48527 6.21782C1.48527 3.45003 3.73701 1.19829 6.50479 1.19829C8.30922 1.19829 9.95511 2.16215 10.8462 3.69684L9.32488 3.37081C9.07839 3.31799 8.83585 3.475 8.7831 3.72141C8.73031 3.96783 8.88729 4.21044 9.1337 4.26323L11.7452 4.82286C11.7895 4.83239 11.8346 4.83513 11.879 4.8314C11.953 4.82516 12.0251 4.80088 12.0886 4.75978C12.1903 4.69403 12.2616 4.59061 12.287 4.4723L12.8466 1.86083C12.8994 1.61445 12.7424 1.37191 12.496 1.31905Z" fill="#D6E0E4"/>
<path d="M12.0372 5.61943C11.7853 5.62776 11.5878 5.83868 11.5961 6.09054C11.6404 7.43058 11.1602 8.70758 10.2439 9.68648C9.32764 10.6653 8.08507 11.2288 6.74505 11.273C6.6892 11.2748 6.63364 11.2757 6.578 11.2757C4.82953 11.2757 3.21883 10.3676 2.30919 8.89631L3.89524 9.3216C4.13866 9.38684 4.38891 9.24246 4.45418 8.999C4.51945 8.75559 4.37504 8.50538 4.13162 8.44003L1.55199 7.7484C1.4351 7.71711 1.3105 7.73347 1.20573 7.79392C1.10089 7.85437 1.02441 7.95407 0.993049 8.07096L0.30145 10.6507C0.236178 10.8941 0.380595 11.1443 0.624014 11.2096C0.663622 11.2202 0.703341 11.2253 0.742475 11.2253C0.943913 11.2253 1.1283 11.0908 1.18295 10.887L1.5717 9.43714C2.65314 11.14 4.53555 12.1885 6.57779 12.1884C6.64339 12.1884 6.70935 12.1873 6.77521 12.1851C8.35886 12.1328 9.82737 11.4669 10.9102 10.3101C11.9931 9.15335 12.5606 7.6441 12.5083 6.06042C12.5 5.8086 12.289 5.61049 12.0372 5.61943Z" fill="#D6E0E4"/>
</svg>
