<svg xmlns="http://www.w3.org/2000/svg">
<style xmlns="http://www.w3.org/2000/svg">
g { display: none; }
g:target { display: inline; }
</style>

<g id="default"><use xlink:href="#hide-s" xmlns:xlink="http://www.w3.org/1999/xlink" filter="url(#filter0_i_1869_542)" fill="#D6E0E4"/></g>
<g id="hover"><use xlink:href="#hide-s" xmlns:xlink="http://www.w3.org/1999/xlink" filter="url(#filter0_i_1869_542)" fill="#4192D9" /></g>

<symbol id="hide-s" viewBox="0 0 16 16">
    <path d="M5.38216 8.12948L2.80816 5.55548C1.79483 6.66014 1.41083 7.76681 1.40416 7.78948L1.3335 8.00014L1.4035 8.21081C1.41816 8.25548 2.9475 12.6668 8.03616 12.6668C8.6555 12.6668 9.2195 12.5988 9.7375 12.4848L7.90683 10.6541C7.24768 10.6218 6.62413 10.3455 6.15749 9.87882C5.69084 9.41217 5.41448 8.78862 5.38216 8.12948ZM8.03616 3.33348C6.7995 3.33348 5.78616 3.60281 4.9415 3.99881L2.4715 1.52881L1.52883 2.47148L13.5288 14.4715L14.4715 13.5288L12.2728 11.3301C14.0315 10.0281 14.6588 8.23881 14.6682 8.21081L14.7382 8.00014L14.6682 7.78948C14.6535 7.74481 13.1248 3.33348 8.03616 3.33348ZM9.30683 8.36414C9.4315 7.91281 9.3255 7.40481 8.97883 7.05748C8.63216 6.71014 8.1235 6.60481 7.67216 6.72948L6.66683 5.72414C7.07881 5.4708 7.55253 5.33565 8.03616 5.33348C9.50683 5.33348 10.7028 6.52948 10.7028 8.00014C10.7009 8.48369 10.5654 8.9573 10.3115 9.36881L9.30683 8.36414Z"/>
</symbol>

<defs>
    <filter id="filter0_i_1869_542" x="1.3335" y="1.52881" width="13.4048" height="13.9429" filterUnits="userSpaceOnUse" color-interpolation-filters="sRGB">
        <feFlood flood-opacity="0" result="BackgroundImageFix"/>
        <feBlend mode="normal" in="SourceGraphic" in2="BackgroundImageFix" result="shape"/>
        <feColorMatrix in="SourceAlpha" type="matrix" values="0 0 0 0 0 0 0 0 0 0 0 0 0 0 0 0 0 0 127 0" result="hardAlpha"/>
        <feOffset dy="1"/>
        <feGaussianBlur stdDeviation="0.5"/>
        <feComposite in2="hardAlpha" operator="arithmetic" k2="-1" k3="1"/>
        <feColorMatrix type="matrix" values="0 0 0 0 0.439216 0 0 0 0 0.52549 0 0 0 0 0.6 0 0 0 0.73 0"/>
        <feBlend mode="normal" in2="shape" result="effect1_innerShadow_1869_542"/>
    </filter>
</defs>

</svg>
