<svg width="17" height="16" viewBox="0 0 17 16" fill="none" xmlns="http://www.w3.org/2000/svg">
<path d="M17 9.56522C17 9.14714 16.8307 8.75757 16.5389 8.47025C16.8697 8.11478 17.0382 7.63824 16.9922 7.14226C16.9093 6.25807 16.0983 5.5652 15.1449 5.5652H10.7695C10.9862 4.91893 11.3333 3.73426 11.3333 2.7826C11.3333 1.27373 10.0279 0 9.20832 0C8.47307 0 7.94677 0.406957 7.92482 0.423653C7.84052 0.489751 7.79164 0.589925 7.79164 0.695642V3.05459L5.75095 7.39478L5.66664 7.43721V7.30433C5.66664 7.11232 5.50797 6.95649 5.31247 6.95649H1.77082C0.794053 6.95652 0 7.73636 0 8.69564V14.2609C0 15.2202 0.794053 16 1.77082 16H3.89582C4.66152 16 5.31602 15.52 5.56252 14.8501C6.15188 15.1478 6.9452 15.3044 7.4375 15.3044H13.9393C14.7107 15.3044 15.3857 14.7937 15.5444 14.0897C15.6258 13.7266 15.5784 13.3614 15.4169 13.0442C15.9396 12.7861 16.2917 12.2553 16.2917 11.6522C16.2917 11.4059 16.2343 11.1701 16.1259 10.9572C16.6487 10.6984 17 10.1684 17 9.56522ZM15.5061 10.4236C15.3694 10.4397 15.2539 10.5308 15.2101 10.6595C15.1669 10.7882 15.203 10.9294 15.3036 11.0226C15.4835 11.1889 15.5834 11.4129 15.5834 11.6522C15.5834 12.0911 15.2455 12.4598 14.7985 12.5106C14.6618 12.5266 14.5464 12.6177 14.5025 12.7464C14.4593 12.8751 14.4954 13.0163 14.596 13.1096C14.829 13.3252 14.9225 13.6278 14.8524 13.9395C14.7653 14.3277 14.3813 14.6087 13.9393 14.6087H7.4375C6.86232 14.6087 5.89757 14.3437 5.56325 14.0146C5.46195 13.9158 5.30895 13.8866 5.1772 13.9395C5.04475 13.9931 4.95832 14.1204 4.95832 14.2609C4.95832 14.8362 4.48163 15.3044 3.89582 15.3044H1.77082C1.18502 15.3044 0.708322 14.8362 0.708322 14.2609V8.69564C0.708322 8.12033 1.18502 7.65216 1.77082 7.65216H4.95832V8C4.95832 8.12036 5.02207 8.23234 5.12689 8.29635C5.23032 8.35756 5.36064 8.36382 5.47114 8.31096L6.17947 7.96312C6.25102 7.92833 6.30839 7.86989 6.34239 7.79825L8.46739 3.27649C8.48864 3.23058 8.49997 3.18049 8.49997 3.13041V0.884153C8.64732 0.804164 8.90305 0.695642 9.20832 0.695642C9.5965 0.695642 10.625 1.64312 10.625 2.7826C10.625 4.00696 9.94643 5.77181 9.94005 5.78923C9.89898 5.89566 9.91313 6.01602 9.979 6.11062C10.0456 6.20453 10.1547 6.26088 10.2708 6.26088H15.1449C15.7356 6.26088 16.2371 6.67618 16.2867 7.20627C16.3242 7.60279 16.1301 7.97985 15.7824 8.19063C15.674 8.25601 15.6096 8.37428 15.6145 8.50019C15.6194 8.62609 15.6931 8.73878 15.8064 8.79653C16.1061 8.94611 16.2916 9.24106 16.2916 9.56522C16.2917 10.0042 15.9538 10.3729 15.5061 10.4236Z" fill="#708699"/>
</svg>
