<svg width="12" height="9" viewBox="0 0 12 9" fill="none" xmlns="http://www.w3.org/2000/svg">
<path fill-rule="evenodd" clip-rule="evenodd" d="M3.44698 2.10255C3.44698 2.10255 3.19266 1.67429 3.10987 1.47685C3.0401 1.35317 3.06236 1.34591 3.10479 1.33207C3.11713 1.32805 3.13118 1.32347 3.14516 1.31531C3.14516 1.31531 4.4608 0.772118 5.70211 0.772118H6.29782C6.29782 0.772118 8.10759 0.769922 8.86763 1.3997C8.90215 1.42824 8.92185 1.42566 8.92889 1.42258C8.92294 1.42823 8.90827 1.44696 8.88634 1.49921C8.7561 1.81033 8.553 2.10255 8.553 2.10255L11.3443 3.4947L11.8613 2.54656C11.8613 2.54656 12.3926 1.67808 11.3755 1.16259L10.5492 0.730867C10.5492 0.730867 9.42581 0 6.19868 0H5.70211C3.1575 0 1.45079 0.730867 1.45079 0.730867L0.62455 1.16259C-0.392587 1.67808 0.138677 2.54656 0.138677 2.54656L0.622585 3.4947L3.44698 2.10255ZM8.93188 1.42052C8.9319 1.42076 8.93092 1.42169 8.92889 1.42258C8.93085 1.42072 8.93186 1.42027 8.93188 1.42052ZM9.34225 4.389C8.90172 3.75575 8.33081 3.37567 7.79561 3.148L7.81966 2.82397C7.81966 2.03926 7.0128 2.05185 7.0128 2.05185H5.02676C4.22003 2.05185 4.25547 2.76352 4.25547 2.76352V3.16563C3.613 3.39488 2.97887 3.76865 2.65605 4.38113C2.65605 4.38113 1.70203 7.0601 1.68782 6.90808V6.89934C1.68761 6.9029 1.68761 6.90581 1.68782 6.90808V8.22756C1.68782 8.22756 1.62163 9 2.4823 9H9.54908C9.54908 9 10.3766 8.96757 10.3766 8.22756V6.9642L9.34225 4.389Z" fill="#D6E0E4"/>
</svg>
