<svg width="16" height="16" viewBox="0 0 16 16" fill="none" xmlns="http://www.w3.org/2000/svg">
<g filter="url(#filter0_i_1955_762)">
<path fill-rule="evenodd" clip-rule="evenodd" d="M8.46161 9.93894C14.5444 9.93894 14.9924 7.63104 14.9924 7.63104V12.5751C14.9924 12.5751 15.2078 13.938 13.3468 13.938H3.766C3.766 13.938 2.06869 14.4652 2.06869 12.4458V7.99911C2.06869 7.99911 3.39552 9.93894 8.46161 9.93894ZM8.49608 8.974C4.20541 8.974 2.06869 6.97449 2.06869 6.97449V5.9797C2.06869 5.9797 1.56036 3.99014 3.30937 3.99014H5.51501C5.51501 3.99014 5.13592 2.00058 6.78153 2.00058H10.3312C10.3312 2.00058 11.5202 1.91105 11.5202 3.9603L13.9154 3.99014C13.9154 3.99014 14.9924 3.90061 14.9924 5.9797V6.84516C14.9924 6.84516 13.6225 8.974 8.49608 8.974ZM10.6845 3.9603C10.6845 3.9603 11.0636 2.96552 10.1503 2.96552H6.61783C6.61783 2.96552 6.37659 3.08489 6.37659 3.99014L10.6845 3.9603ZM9.39212 10.9835C9.39212 10.4363 9.41797 9.92899 9.41797 9.92899L7.64311 9.95883C7.64311 9.95883 7.64311 10.4363 7.64311 10.9835C7.64311 11.5306 8.03082 11.9484 8.50469 11.9484H8.53054C9.00441 11.9484 9.39212 11.5306 9.39212 10.9835Z" fill="#D6E0E4"/>
</g>
<defs>
<filter id="filter0_i_1955_762" x="2" y="2" width="13" height="13" filterUnits="userSpaceOnUse" color-interpolation-filters="sRGB">
<feFlood flood-opacity="0" result="BackgroundImageFix"/>
<feBlend mode="normal" in="SourceGraphic" in2="BackgroundImageFix" result="shape"/>
<feColorMatrix in="SourceAlpha" type="matrix" values="0 0 0 0 0 0 0 0 0 0 0 0 0 0 0 0 0 0 127 0" result="hardAlpha"/>
<feOffset dy="1"/>
<feGaussianBlur stdDeviation="0.5"/>
<feComposite in2="hardAlpha" operator="arithmetic" k2="-1" k3="1"/>
<feColorMatrix type="matrix" values="0 0 0 0 0.439216 0 0 0 0 0.52549 0 0 0 0 0.6 0 0 0 0.73 0"/>
<feBlend mode="normal" in2="shape" result="effect1_innerShadow_1955_762"/>
</filter>
</defs>
</svg>
