<svg width="16" height="16" viewBox="0 0 16 16" fill="none" xmlns="http://www.w3.org/2000/svg">
<g filter="url(#filter0_i_2892_4613)">
<path d="M8.00001 1C6.54184 1.00172 5.1439 1.58174 4.11282 2.61281C3.08174 3.64389 2.50173 5.04184 2.50001 6.5C2.49826 7.69161 2.8875 8.85089 3.60801 9.8C3.60801 9.8 3.75801 9.9975 3.78251 10.026L8.00001 15L12.2195 10.0235C12.2415 9.997 12.392 9.8 12.392 9.8L12.3925 9.7985C13.1127 8.84981 13.5017 7.69107 13.5 6.5C13.4983 5.04184 12.9183 3.64389 11.8872 2.61281C10.8561 1.58174 9.45817 1.00172 8.00001 1ZM8.00001 8.5C7.60444 8.5 7.21776 8.3827 6.88886 8.16294C6.55997 7.94318 6.30362 7.63082 6.15225 7.26537C6.00087 6.89991 5.96126 6.49778 6.03843 6.10982C6.11561 5.72186 6.30609 5.36549 6.58579 5.08579C6.8655 4.80608 7.22186 4.6156 7.60982 4.53843C7.99779 4.46126 8.39992 4.50087 8.76537 4.65224C9.13082 4.80362 9.44318 5.05996 9.66294 5.38886C9.88271 5.71776 10 6.10444 10 6.5C9.99934 7.03023 9.78842 7.53855 9.41349 7.91348C9.03856 8.28841 8.53024 8.49934 8.00001 8.5Z" fill="#D6E0E4"/>
</g>
<defs>
<filter id="filter0_i_2892_4613" x="2.5" y="1" width="11" height="15" filterUnits="userSpaceOnUse" color-interpolation-filters="sRGB">
<feFlood flood-opacity="0" result="BackgroundImageFix"/>
<feBlend mode="normal" in="SourceGraphic" in2="BackgroundImageFix" result="shape"/>
<feColorMatrix in="SourceAlpha" type="matrix" values="0 0 0 0 0 0 0 0 0 0 0 0 0 0 0 0 0 0 127 0" result="hardAlpha"/>
<feOffset dy="1"/>
<feGaussianBlur stdDeviation="0.5"/>
<feComposite in2="hardAlpha" operator="arithmetic" k2="-1" k3="1"/>
<feColorMatrix type="matrix" values="0 0 0 0 0.439216 0 0 0 0 0.52549 0 0 0 0 0.6 0 0 0 0.73 0"/>
<feBlend mode="normal" in2="shape" result="effect1_innerShadow_2892_4613"/>
</filter>
</defs>
</svg>
