<svg width="25" height="21" viewBox="0 0 25 21" fill="none" xmlns="http://www.w3.org/2000/svg">
<g clip-path="url(#clip0_1611_984)">
<rect width="25" height="21" rx="3" fill="#004F94"/>
<path fill-rule="evenodd" clip-rule="evenodd" d="M12.4289 8.41191C12.4289 8.41191 12.1741 7.97219 12.0912 7.76996C12.0214 7.64357 12.0434 7.6363 12.0857 7.62238C12.0982 7.61828 12.1123 7.61362 12.1264 7.60518C12.1264 7.60518 13.4449 7.04811 14.6889 7.04811H15.2859C15.2859 7.04811 17.0995 7.04561 17.8612 7.69163C17.8959 7.72066 17.9157 7.71766 17.9227 7.71442C17.9167 7.72022 17.902 7.73957 17.88 7.79368C17.7494 8.11231 17.5459 8.41191 17.5459 8.41191L20.3432 9.83876L20.8613 8.86693C20.8613 8.86693 21.3937 7.97656 20.3744 7.44789L19.5464 7.00535C19.5464 7.00535 18.4206 6.25635 15.1865 6.25635H14.6889C12.1389 6.25635 10.4285 7.00535 10.4285 7.00535L9.60048 7.44789C8.58118 7.97656 9.11359 8.86693 9.11359 8.86693L9.59858 9.83876L12.4289 8.41191ZM17.9256 7.71232C17.9256 7.71256 17.9246 7.7135 17.9227 7.71442C17.9246 7.71254 17.9256 7.71208 17.9256 7.71232ZM18.3045 10.2738C17.863 9.62468 17.2909 9.23519 16.7546 9.00145L16.7786 8.66938C16.7786 7.86514 15.9701 7.87732 15.9701 7.87732H13.9798C13.1714 7.87732 13.2069 8.60697 13.2069 8.60697V9.01985C12.563 9.25423 11.9276 9.63778 11.6041 10.2654C11.6041 10.2654 10.648 13.0117 10.6338 12.8562V12.8473C10.6336 12.8509 10.6336 12.8539 10.6338 12.8562V14.2082C10.6338 14.2082 10.5675 15 11.4299 15H18.5118C18.5118 15 19.3411 14.9672 19.3411 14.2082V12.9131L18.3045 10.2738Z" fill="#7ABAF2"/>
<mask id="path-3-outside-1_1611_984" maskUnits="userSpaceOnUse" x="3" y="5" width="11" height="11" fill="black">
<rect fill="white" x="3" y="5" width="11" height="11"/>
<path fill-rule="evenodd" clip-rule="evenodd" d="M8.49806 6C10.9822 6 12.9961 8.00295 12.9961 10.4737C12.9961 12.9451 10.9822 14.9487 8.49806 14.9487C6.01392 14.9487 4 12.9451 4 10.4737C4 8.00295 6.01392 6 8.49806 6ZM8.8289 10.8417C9.01812 10.9119 9.15226 10.9796 9.23098 11.0451C9.36379 11.1591 9.43031 11.5304 9.43031 11.7249C9.43031 11.9817 9.35933 12.1615 9.21737 12.2654C9.13629 12.3247 9.00682 12.3653 8.8289 12.388V10.8417ZM8.49753 9.81179C8.33123 9.75967 8.20826 9.7035 8.12861 9.64201C7.98502 9.5306 7.91333 9.38018 7.91333 9.19012C7.91333 9.01535 7.96119 8.87834 8.05685 8.77692C8.15252 8.67643 8.29938 8.62337 8.49753 8.619V9.81179ZM8.8289 13.1455C9.18199 13.1186 9.39347 13.0256 9.65084 12.8671C10.0722 12.6093 10.283 12.1942 10.283 11.6231C10.283 11.1906 10.1298 10.6376 9.82371 10.3998C9.63771 10.2574 9.36858 10.093 8.8289 9.90729V8.61245C9.05403 8.62868 9.2093 8.71669 9.29479 8.8771C9.34436 8.97041 9.37804 8.80688 9.3961 9.00786H10.076C10.0624 8.46453 9.95771 8.38213 9.57448 8.13965C9.36379 7.98829 9.19854 7.89746 8.8289 7.86814V7.06763H8.27883V7.86126C8.04654 7.87936 8.08863 7.90745 7.96803 7.94616C7.76987 8.00733 7.58998 8.11842 7.42826 8.27915C7.30287 8.40398 7.2055 8.55222 7.13604 8.7248C7.06657 8.89677 7.03191 9.08838 7.03191 9.29841C7.03191 9.61829 7.12126 9.89106 7.30004 10.1173C7.47889 10.3442 7.7857 10.5212 8.22086 10.6482L8.49753 10.7293V12.398C8.23786 12.3525 8.06369 12.2545 7.97485 12.1028C7.91787 12.0048 7.87347 12.1867 7.8417 11.9009H6.91917C6.91235 12.5285 7.1036 12.6 7.4932 12.8605C7.714 13.005 7.79889 13.103 8.24765 13.1527V14.0152H8.8289V13.1455Z"/>
</mask>
<path fill-rule="evenodd" clip-rule="evenodd" d="M8.49806 6C10.9822 6 12.9961 8.00295 12.9961 10.4737C12.9961 12.9451 10.9822 14.9487 8.49806 14.9487C6.01392 14.9487 4 12.9451 4 10.4737C4 8.00295 6.01392 6 8.49806 6ZM8.8289 10.8417C9.01812 10.9119 9.15226 10.9796 9.23098 11.0451C9.36379 11.1591 9.43031 11.5304 9.43031 11.7249C9.43031 11.9817 9.35933 12.1615 9.21737 12.2654C9.13629 12.3247 9.00682 12.3653 8.8289 12.388V10.8417ZM8.49753 9.81179C8.33123 9.75967 8.20826 9.7035 8.12861 9.64201C7.98502 9.5306 7.91333 9.38018 7.91333 9.19012C7.91333 9.01535 7.96119 8.87834 8.05685 8.77692C8.15252 8.67643 8.29938 8.62337 8.49753 8.619V9.81179ZM8.8289 13.1455C9.18199 13.1186 9.39347 13.0256 9.65084 12.8671C10.0722 12.6093 10.283 12.1942 10.283 11.6231C10.283 11.1906 10.1298 10.6376 9.82371 10.3998C9.63771 10.2574 9.36858 10.093 8.8289 9.90729V8.61245C9.05403 8.62868 9.2093 8.71669 9.29479 8.8771C9.34436 8.97041 9.37804 8.80688 9.3961 9.00786H10.076C10.0624 8.46453 9.95771 8.38213 9.57448 8.13965C9.36379 7.98829 9.19854 7.89746 8.8289 7.86814V7.06763H8.27883V7.86126C8.04654 7.87936 8.08863 7.90745 7.96803 7.94616C7.76987 8.00733 7.58998 8.11842 7.42826 8.27915C7.30287 8.40398 7.2055 8.55222 7.13604 8.7248C7.06657 8.89677 7.03191 9.08838 7.03191 9.29841C7.03191 9.61829 7.12126 9.89106 7.30004 10.1173C7.47889 10.3442 7.7857 10.5212 8.22086 10.6482L8.49753 10.7293V12.398C8.23786 12.3525 8.06369 12.2545 7.97485 12.1028C7.91787 12.0048 7.87347 12.1867 7.8417 11.9009H6.91917C6.91235 12.5285 7.1036 12.6 7.4932 12.8605C7.714 13.005 7.79889 13.103 8.24765 13.1527V14.0152H8.8289V13.1455Z" fill="white"/>
<path d="M8.8289 10.8417L9.17681 9.90414L7.8289 9.40395V10.8417H8.8289ZM9.23098 11.0451L9.88198 10.2861L9.87643 10.2813L9.8708 10.2766L9.23098 11.0451ZM9.21737 12.2654L9.80769 13.0726L9.80807 13.0723L9.21737 12.2654ZM8.8289 12.388H7.8289V13.5242L8.95588 13.3799L8.8289 12.388ZM8.49753 9.81179L8.1985 10.766L9.49753 11.1731V9.81179H8.49753ZM8.12861 9.64201L7.51558 10.4321L7.51755 10.4336L8.12861 9.64201ZM8.05685 8.77692L7.33259 8.08737L7.32935 8.09081L8.05685 8.77692ZM8.49753 8.619H9.49753V7.59672L8.4755 7.61925L8.49753 8.619ZM8.8289 13.1455L8.75312 12.1483L7.8289 12.2186V13.1455H8.8289ZM9.65084 12.8671L9.12897 12.0141L9.12638 12.0157L9.65084 12.8671ZM9.82371 10.3998L10.4373 9.61007L10.4313 9.60554L9.82371 10.3998ZM8.8289 9.90729H7.8289V10.6208L8.50355 10.8529L8.8289 9.90729ZM8.8289 8.61245L8.90079 7.61504L7.8289 7.53778V8.61245H8.8289ZM9.29479 8.8771L10.1779 8.4079L10.1773 8.40681L9.29479 8.8771ZM9.3961 9.00786L8.40011 9.09732L8.48189 10.0079H9.3961V9.00786ZM10.076 9.00786V10.0079H11.1013L11.0756 8.98286L10.076 9.00786ZM9.57448 8.13965L8.99102 8.95179L9.01493 8.96896L9.03979 8.9847L9.57448 8.13965ZM8.8289 7.86814H7.8289V8.79194L8.74981 8.865L8.8289 7.86814ZM8.8289 7.06763H9.8289V6.06763H8.8289V7.06763ZM8.27883 7.06763V6.06763H7.27883V7.06763H8.27883ZM8.27883 7.86126L8.35652 8.85824L9.27883 8.78637V7.86126H8.27883ZM7.96803 7.94616L8.26302 8.90172L8.2736 8.89832L7.96803 7.94616ZM7.42826 8.27915L6.72332 7.56989L6.72276 7.57044L7.42826 8.27915ZM7.13604 8.7248L8.06325 9.09932L8.06371 9.09819L7.13604 8.7248ZM7.30004 10.1173L8.08536 9.49823L8.08467 9.49736L7.30004 10.1173ZM8.22086 10.6482L8.5023 9.6886L8.50106 9.68824L8.22086 10.6482ZM8.49753 10.7293H9.49753V9.98049L8.77897 9.76974L8.49753 10.7293ZM8.49753 12.398L8.32475 13.383L9.49753 13.5887V12.398H8.49753ZM7.97485 12.1028L7.1104 12.6055L7.11196 12.6082L7.97485 12.1028ZM7.8417 11.9009L8.83558 11.7904L8.73671 10.9009H7.8417V11.9009ZM6.91917 11.9009V10.9009H5.92999L5.91923 11.89L6.91917 11.9009ZM7.4932 12.8605L6.93722 13.6918L6.9456 13.6973L7.4932 12.8605ZM8.24765 13.1527H9.24765V12.2571L8.35756 12.1587L8.24765 13.1527ZM8.24765 14.0152H7.24765V15.0152H8.24765V14.0152ZM8.8289 14.0152V15.0152H9.8289V14.0152H8.8289ZM8.49806 7C10.435 7 11.9961 8.56033 11.9961 10.4737H13.9961C13.9961 7.44556 11.5294 5 8.49806 5V7ZM11.9961 10.4737C11.9961 12.388 10.4348 13.9487 8.49806 13.9487V15.9487C11.5296 15.9487 13.9961 13.5022 13.9961 10.4737H11.9961ZM8.49806 13.9487C6.56134 13.9487 5 12.388 5 10.4737H3C3 13.5022 5.46649 15.9487 8.49806 15.9487V13.9487ZM5 10.4737C5 8.56035 6.56107 7 8.49806 7V5C5.46677 5 3 7.44554 3 10.4737H5ZM8.481 11.7792C8.55165 11.8054 8.59592 11.8253 8.62005 11.8375C8.63154 11.8433 8.63439 11.8454 8.63072 11.8431C8.62748 11.841 8.61272 11.8316 8.59115 11.8137L9.8708 10.2766C9.656 10.0978 9.38867 9.98276 9.17681 9.90414L8.481 11.7792ZM8.57997 11.8042C8.51275 11.7466 8.47149 11.692 8.44991 11.6602C8.42748 11.6271 8.41532 11.6022 8.41051 11.5918C8.40184 11.5731 8.40431 11.5737 8.41097 11.6C8.41687 11.6233 8.42239 11.6524 8.42618 11.6815C8.4302 11.7124 8.43031 11.7281 8.43031 11.7249H10.4303C10.4303 11.5379 10.4016 11.314 10.3499 11.1096C10.3234 11.0046 10.2843 10.8788 10.2258 10.7523C10.1739 10.6401 10.0714 10.4485 9.88198 10.2861L8.57997 11.8042ZM8.43031 11.7249C8.43031 11.7664 8.42387 11.7438 8.44673 11.6858C8.47352 11.6178 8.5303 11.5291 8.62668 11.4585L9.80807 13.0723C10.31 12.7048 10.4303 12.1472 10.4303 11.7249H8.43031ZM8.62706 11.4582C8.66484 11.4306 8.6971 11.4132 8.71855 11.403C8.74005 11.3928 8.75448 11.388 8.75891 11.3866C8.76584 11.3845 8.75008 11.39 8.70192 11.3961L8.95588 13.3799C9.18567 13.3505 9.51979 13.2831 9.80769 13.0726L8.62706 11.4582ZM9.8289 12.388V10.8417H7.8289V12.388H9.8289ZM8.79657 8.85754C8.74228 8.84053 8.71142 8.82787 8.69798 8.82169C8.69183 8.81887 8.69277 8.81897 8.69913 8.82266C8.70533 8.82627 8.71987 8.83514 8.73968 8.85043L7.51755 10.4336C7.73682 10.6029 7.99294 10.7016 8.1985 10.766L8.79657 8.85754ZM8.74164 8.85196C8.78184 8.88314 8.83268 8.93733 8.86989 9.01543C8.90643 9.09211 8.91333 9.15716 8.91333 9.19012H6.91333C6.91333 9.67294 7.11532 10.1215 7.51558 10.4321L8.74164 8.85196ZM8.91333 9.19012C8.91333 9.19309 8.91299 9.22913 8.89372 9.28453C8.87319 9.34354 8.83708 9.40711 8.78435 9.46302L7.32935 8.09081C7.01836 8.42056 6.91333 8.8258 6.91333 9.19012H8.91333ZM8.7811 9.46645C8.62848 9.62675 8.47584 9.61972 8.51957 9.61876L8.4755 7.61925C8.12292 7.62702 7.67656 7.72611 7.3326 8.08738L8.7811 9.46645ZM7.49753 8.619V9.81179H9.49753V8.619H7.49753ZM8.90468 14.1426C9.45654 14.1007 9.82069 13.937 10.1753 13.7185L9.12638 12.0157C9.02638 12.0773 8.97524 12.1011 8.93757 12.1146C8.90456 12.1265 8.85327 12.1407 8.75312 12.1483L8.90468 14.1426ZM10.1727 13.7201C10.9424 13.2493 11.283 12.4778 11.283 11.6231H9.28297C9.28297 11.9107 9.20208 11.9693 9.12897 12.0141L10.1727 13.7201ZM11.283 11.6231C11.283 11.3 11.2275 10.9432 11.1135 10.6125C11.0055 10.2993 10.8058 9.89648 10.4373 9.61009L9.21017 11.1894C9.17245 11.1601 9.16507 11.1419 9.17608 11.1596C9.18631 11.176 9.20402 11.2101 9.22273 11.2644C9.26183 11.3778 9.28297 11.5137 9.28297 11.6231H11.283ZM10.4313 9.60554C10.1467 9.38777 9.77842 9.17645 9.15425 8.96169L8.50355 10.8529C8.95874 11.0095 9.12871 11.1271 9.21607 11.194L10.4313 9.60554ZM9.8289 9.90729V8.61245H7.8289V9.90729H9.8289ZM8.75701 9.60987C8.75701 9.60987 8.75375 9.60963 8.74764 9.60863C8.74151 9.60762 8.73219 9.60578 8.7202 9.60249C8.696 9.59585 8.66099 9.58332 8.62049 9.56033C8.53038 9.50917 8.45707 9.43145 8.41228 9.34739L10.1773 8.40681C9.88941 7.86658 9.37237 7.64903 8.90079 7.61504L8.75701 9.60987ZM8.4117 9.34631C8.45283 9.42373 8.53002 9.54837 8.66461 9.66288C8.73511 9.72287 8.82154 9.78018 8.92461 9.82468C9.0288 9.86966 9.13564 9.89534 9.24001 9.90467C9.44088 9.92261 9.59522 9.87585 9.64598 9.85976C9.66718 9.85304 9.69657 9.84257 9.68099 9.84801C9.67924 9.84863 9.64212 9.86199 9.59321 9.87387C9.54272 9.88613 9.45036 9.90444 9.33311 9.90089C9.20812 9.8971 9.06425 9.86867 8.92031 9.79636C8.77852 9.72514 8.67462 9.63043 8.6024 9.54267C8.53318 9.45855 8.49161 9.3793 8.46759 9.32587C8.44312 9.27145 8.4288 9.2257 8.42076 9.19676C8.41244 9.16678 8.40763 9.14309 8.40505 9.12904C8.40019 9.10255 8.39934 9.08877 8.40011 9.09732L10.3921 8.9184C10.3883 8.87671 10.3825 8.82407 10.3721 8.76769C10.3634 8.72022 10.3428 8.61948 10.2917 8.50565C10.2425 8.39641 10.1123 8.15697 9.81806 8.00917C9.50887 7.85386 9.2279 7.90446 9.12132 7.93034C9.06819 7.94323 9.02673 7.95804 9.02051 7.96022C9.00047 7.96723 9.02527 7.95844 9.04176 7.95321C9.0831 7.94011 9.22752 7.89559 9.41798 7.9126C9.63332 7.93184 9.82017 8.02011 9.96066 8.13965C10.0839 8.24447 10.1491 8.35381 10.1779 8.4079L8.4117 9.34631ZM9.3961 10.0079H10.076V8.00786H9.3961V10.0079ZM11.0756 8.98286C11.0683 8.68763 11.0404 8.28928 10.807 7.9233C10.5891 7.58154 10.2552 7.387 10.1092 7.2946L9.03979 8.9847C9.0871 9.01463 9.12099 9.03636 9.14871 9.05494C9.17611 9.07331 9.18911 9.08305 9.19407 9.08695C9.19843 9.09038 9.18998 9.08417 9.1754 9.06894C9.15985 9.05268 9.14012 9.0291 9.12066 8.99857C9.10109 8.96788 9.08702 8.93839 9.07755 8.91346C9.06851 8.88966 9.06554 8.87497 9.06545 8.87455C9.06541 8.87435 9.066 8.87727 9.06693 8.88394C9.06785 8.89061 9.06902 8.9004 9.07023 8.91388C9.07271 8.94147 9.07494 8.97981 9.07627 9.03286L11.0756 8.98286ZM10.1579 7.3275C10.0308 7.23615 9.85853 7.11949 9.63093 7.02895C9.4008 6.9374 9.16389 6.89157 8.90799 6.87127L8.74981 8.865C8.80795 8.86962 8.84375 8.87554 8.8643 8.8799C8.88341 8.88395 8.89074 8.88694 8.89167 8.88731C8.89178 8.88735 8.90749 8.89178 8.99102 8.95179L10.1579 7.3275ZM9.8289 7.86814V7.06763H7.8289V7.86814H9.8289ZM8.8289 6.06763H8.27883V8.06763H8.8289V6.06763ZM7.27883 7.06763V7.86126H9.27883V7.06763H7.27883ZM8.20115 6.86429C8.05804 6.87544 7.87972 6.89605 7.69398 6.97414C7.65237 6.99164 7.6196 7.0081 7.60138 7.01746C7.59384 7.02133 7.58506 7.02593 7.58433 7.02631C7.58167 7.0277 7.58316 7.0269 7.58601 7.02547C7.60817 7.01434 7.63617 7.00242 7.66246 6.99399L8.2736 8.89832C8.31402 8.88535 8.3527 8.87117 8.39028 8.85556C8.42819 8.8398 8.45951 8.82484 8.4836 8.81274C8.49477 8.80713 8.50417 8.80224 8.50921 8.79961C8.51618 8.79597 8.5149 8.79664 8.51486 8.79666C8.51166 8.7983 8.49394 8.80739 8.46912 8.81782C8.44301 8.8288 8.41646 8.83821 8.39043 8.84581C8.36561 8.85305 8.34628 8.85718 8.33491 8.85933C8.32398 8.8614 8.31939 8.86182 8.3237 8.8613C8.32794 8.86079 8.33822 8.85967 8.35652 8.85824L8.20115 6.86429ZM7.67305 6.99065C7.30498 7.10428 6.9878 7.30702 6.72332 7.56989L8.13321 8.98841C8.19216 8.92982 8.23477 8.91038 8.263 8.90166L7.67305 6.99065ZM6.72276 7.57044C6.497 7.79518 6.32605 8.05901 6.20836 8.35141L8.06371 9.09819C8.08494 9.04544 8.10874 9.01277 8.13377 8.98786L6.72276 7.57044ZM6.20882 8.35028C6.08512 8.65652 6.03191 8.97758 6.03191 9.29841H8.03191C8.03191 9.19919 8.04803 9.13702 8.06325 9.09932L6.20882 8.35028ZM6.03191 9.29841C6.03191 9.81739 6.18188 10.3152 6.51541 10.7373L8.08467 9.49736C8.06064 9.46694 8.03191 9.4192 8.03191 9.29841H6.03191ZM6.51472 10.7364C6.87677 11.1957 7.41102 11.4535 7.94067 11.6081L8.50106 9.68824C8.33993 9.6412 8.23212 9.59325 8.16382 9.55388C8.0964 9.515 8.08053 9.49211 8.08536 9.49823L6.51472 10.7364ZM7.93943 11.6078L8.2161 11.6889L8.77897 9.76974L8.5023 9.6886L7.93943 11.6078ZM7.49753 10.7293V12.398H9.49753V10.7293H7.49753ZM8.67032 11.4131C8.61843 11.404 8.62557 11.3979 8.66358 11.4193C8.70844 11.4446 8.78088 11.5003 8.83774 11.5974L7.11196 12.6082C7.4116 13.1198 7.92464 13.3128 8.32475 13.383L8.67032 11.4131ZM8.8393 11.6001C8.78713 11.5104 8.69674 11.3829 8.54749 11.2728C8.47104 11.2164 8.38497 11.1691 8.29063 11.1342C8.19657 11.0995 8.10714 11.0819 8.02796 11.0745C7.95082 11.0672 7.88694 11.07 7.84506 11.0733C7.82401 11.075 7.80666 11.077 7.79519 11.0785C7.78443 11.0799 7.77531 11.0812 7.77431 11.0813C7.76403 11.0828 7.79202 11.0784 7.8243 11.0758C7.86048 11.0727 7.92724 11.0692 8.01061 11.0786C8.09783 11.0884 8.20054 11.112 8.30791 11.1613C8.4158 11.2108 8.50677 11.2764 8.58049 11.3482C8.6519 11.4177 8.70109 11.4872 8.73407 11.5425C8.76682 11.5974 8.78783 11.6455 8.80085 11.6793C8.82545 11.743 8.83442 11.7895 8.83601 11.7977C8.83836 11.8099 8.83772 11.8097 8.83558 11.7904L6.84782 12.0114C6.85362 12.0635 6.86132 12.1202 6.8724 12.1775C6.88272 12.2309 6.90082 12.3108 6.93494 12.3992C6.96673 12.4816 7.03672 12.6365 7.18505 12.7809C7.26392 12.8577 7.36014 12.9269 7.47338 12.9789C7.5861 13.0306 7.69427 13.0556 7.78703 13.066C7.87595 13.076 7.94836 13.0723 7.99028 13.0689C8.01186 13.0671 8.02938 13.0649 8.03993 13.0636C8.04536 13.0629 8.04985 13.0622 8.05269 13.0618C8.05524 13.0615 8.05776 13.0611 8.0578 13.0611C8.07751 13.0583 7.97004 13.0778 7.84099 13.0657C7.68136 13.0507 7.51176 12.994 7.36065 12.8826C7.22486 12.7825 7.14833 12.6707 7.1104 12.6055L8.8393 11.6001ZM7.8417 10.9009H6.91917V12.9009H7.8417V10.9009ZM5.91923 11.89C5.91491 12.2876 5.96651 12.7263 6.25453 13.1143C6.3864 13.292 6.5351 13.4135 6.64753 13.4958C6.74229 13.5652 6.87516 13.6502 6.93725 13.6918L8.04916 12.0293C8.02149 12.0108 7.99531 11.9936 7.97185 11.9781C7.94732 11.962 7.92782 11.9492 7.90816 11.9362C7.86883 11.9102 7.84544 11.8941 7.82885 11.882C7.79606 11.858 7.82431 11.8736 7.86053 11.9224C7.87921 11.9475 7.89506 11.9747 7.90712 12.0015C7.91881 12.0275 7.92371 12.046 7.92514 12.0522C7.92675 12.0591 7.91789 12.0238 7.91911 11.9118L5.91923 11.89ZM6.9456 13.6973C6.96966 13.713 7.17114 13.8596 7.36346 13.949C7.60043 14.0592 7.8498 14.1148 8.13774 14.1466L8.35756 12.1587C8.19674 12.1409 8.17928 12.1227 8.20643 12.1353C8.21537 12.1395 8.21528 12.1409 8.19083 12.1248C8.1765 12.1154 8.16136 12.105 8.13436 12.0866C8.10975 12.0698 8.07726 12.0477 8.0408 12.0238L6.9456 13.6973ZM7.24765 13.1527V14.0152H9.24765V13.1527H7.24765ZM8.24765 15.0152H8.8289V13.0152H8.24765V15.0152ZM9.8289 14.0152V13.1455H7.8289V14.0152H9.8289Z" fill="#00305A" mask="url(#path-3-outside-1_1611_984)"/>
</g>
<defs>
<clipPath id="clip0_1611_984">
<rect width="25" height="21" fill="white"/>
</clipPath>
</defs>
</svg>
