<svg width="18" height="18" viewBox="0 0 18 18" fill="none" xmlns="http://www.w3.org/2000/svg">
<path fill-rule="evenodd" clip-rule="evenodd" d="M9 3C9.41421 3 9.75 3.33579 9.75 3.75V8.25H14.25C14.6642 8.25 15 8.58579 15 9C15 9.41421 14.6642 9.75 14.25 9.75H9.75V14.25C9.75 14.6642 9.41421 15 9 15C8.58579 15 8.25 14.6642 8.25 14.25V9.75H3.75C3.33579 9.75 3 9.41421 3 9C3 8.58579 3.33579 8.25 3.75 8.25H8.25V3.75C8.25 3.33579 8.58579 3 9 3Z" fill="white"/>
<path fill-rule="evenodd" clip-rule="evenodd" d="M9 2.5C9.69036 2.5 10.25 3.05964 10.25 3.75V7.75H14.25C14.9404 7.75 15.5 8.30964 15.5 9C15.5 9.69036 14.9404 10.25 14.25 10.25H10.25V14.25C10.25 14.9404 9.69036 15.5 9 15.5C8.30964 15.5 7.75 14.9404 7.75 14.25V10.25H3.75C3.05964 10.25 2.5 9.69036 2.5 9C2.5 8.30964 3.05964 7.75 3.75 7.75H7.75V3.75C7.75 3.05964 8.30964 2.5 9 2.5ZM8.25 8.25H3.75C3.33579 8.25 3 8.58579 3 9C3 9.41421 3.33579 9.75 3.75 9.75H8.25V14.25C8.25 14.6642 8.58579 15 9 15C9.41421 15 9.75 14.6642 9.75 14.25V9.75H14.25C14.6642 9.75 15 9.41421 15 9C15 8.58579 14.6642 8.25 14.25 8.25H9.75V3.75C9.75 3.33579 9.41421 3 9 3C8.58579 3 8.25 3.33579 8.25 3.75V8.25Z" fill="white"/>
</svg>
