<svg width="16" height="16" viewBox="0 0 16 16" fill="none" xmlns="http://www.w3.org/2000/svg">
<g filter="url(#filter0_i_1816_8107)">
<path fill-rule="evenodd" clip-rule="evenodd" d="M8 14.5C11.5899 14.5 14.5 11.5899 14.5 8C14.5 4.41015 11.5899 1.5 8 1.5C4.41015 1.5 1.5 4.41015 1.5 8C1.5 11.5899 4.41015 14.5 8 14.5ZM8 16C12.4183 16 16 12.4183 16 8C16 3.58172 12.4183 0 8 0C3.58172 0 0 3.58172 0 8C0 12.4183 3.58172 16 8 16Z" fill="#D6E0E4"/>
</g>
<g filter="url(#filter1_i_1816_8107)">
<path d="M7.82857 12.271H7.79165C7.20088 12.2587 6.78242 11.8156 6.80703 11.2372C6.81934 10.6587 7.25011 10.2402 7.81626 10.2402H7.85318C8.46857 10.2649 8.87472 10.6956 8.86242 11.2987C8.8378 11.8649 8.41934 12.271 7.82857 12.271ZM10.327 7.32332C10.1916 7.52025 9.88395 7.7664 9.49011 8.07409L9.07165 8.36948C8.8378 8.54179 8.69011 8.71409 8.64088 8.8864C8.60395 9.02179 8.57934 9.0464 8.57934 9.31717V9.39102H6.95472V9.25563C6.97934 8.68948 6.99165 8.35717 7.22549 8.0864C7.59472 7.65563 8.40703 7.1264 8.43165 7.10179C8.55472 7.01563 8.65319 6.91717 8.72703 6.81871C8.89934 6.57255 8.97318 6.38794 8.97318 6.21563C8.97318 5.95717 8.89934 5.72332 8.75165 5.51409C8.60395 5.31717 8.33318 5.21871 7.93934 5.21871C7.5578 5.21871 7.28703 5.34178 7.12703 5.58794C6.96703 5.8464 6.88088 6.12948 6.88088 6.40025V6.47409H5.20703L5.21934 6.40025C5.25626 5.37871 5.62549 4.64025 6.30242 4.20948C6.73318 3.9264 7.26242 3.79102 7.8778 3.79102C8.69011 3.79102 9.36703 3.98794 9.90857 4.38178C10.4501 4.77563 10.7332 5.35409 10.7332 6.12948C10.7332 6.56025 10.5978 6.9664 10.327 7.32332Z" fill="#D6E0E4"/>
</g>
<defs>
<filter id="filter0_i_1816_8107" x="0" y="0" width="16" height="17" filterUnits="userSpaceOnUse" color-interpolation-filters="sRGB">
<feFlood flood-opacity="0" result="BackgroundImageFix"/>
<feBlend mode="normal" in="SourceGraphic" in2="BackgroundImageFix" result="shape"/>
<feColorMatrix in="SourceAlpha" type="matrix" values="0 0 0 0 0 0 0 0 0 0 0 0 0 0 0 0 0 0 127 0" result="hardAlpha"/>
<feOffset dy="1"/>
<feGaussianBlur stdDeviation="0.5"/>
<feComposite in2="hardAlpha" operator="arithmetic" k2="-1" k3="1"/>
<feColorMatrix type="matrix" values="0 0 0 0 0.439216 0 0 0 0 0.52549 0 0 0 0 0.6 0 0 0 0.73 0"/>
<feBlend mode="normal" in2="shape" result="effect1_innerShadow_1816_8107"/>
</filter>
<filter id="filter1_i_1816_8107" x="5.20703" y="3.79102" width="5.52637" height="9.47998" filterUnits="userSpaceOnUse" color-interpolation-filters="sRGB">
<feFlood flood-opacity="0" result="BackgroundImageFix"/>
<feBlend mode="normal" in="SourceGraphic" in2="BackgroundImageFix" result="shape"/>
<feColorMatrix in="SourceAlpha" type="matrix" values="0 0 0 0 0 0 0 0 0 0 0 0 0 0 0 0 0 0 127 0" result="hardAlpha"/>
<feOffset dy="1"/>
<feGaussianBlur stdDeviation="0.5"/>
<feComposite in2="hardAlpha" operator="arithmetic" k2="-1" k3="1"/>
<feColorMatrix type="matrix" values="0 0 0 0 0.439216 0 0 0 0 0.52549 0 0 0 0 0.6 0 0 0 0.73 0"/>
<feBlend mode="normal" in2="shape" result="effect1_innerShadow_1816_8107"/>
</filter>
</defs>
</svg>
