<svg xmlns="http://www.w3.org/2000/svg">
<style xmlns="http://www.w3.org/2000/svg">
g { display: none; }
g:target { display: inline; }
</style>

<g id="fb">
    <path d="M12.1973 19V12.1673H14.5654L14.9202 9.49291H12.1973V7.7896C12.1973 7.01707 12.4178 6.49068 13.5567 6.49068H15V4.10514C14.7489 4.07266 13.8873 4 12.8848 4C10.7917 4 9.3592 5.24231 9.3592 7.52472V9.49291H7V12.1673H9.3592V19H12.1973Z" fill="#5F76B2"/>
</g>

<g id="tg">
    <path d="M5.2619 10.1009L16.3498 5.82576C16.8644 5.63984 17.3139 5.9513 17.1471 6.72947L17.1481 6.72851L15.2602 15.6228C15.1203 16.2534 14.7456 16.4067 14.2214 16.1096L11.3464 13.9908L9.95964 15.3267C9.80631 15.48 9.67694 15.6094 9.37985 15.6094L9.58398 12.6836L14.9123 7.86989C15.1442 7.66576 14.8606 7.55076 14.5549 7.75393L7.97015 11.8997L5.13156 11.0142C4.51535 10.8187 4.50194 10.398 5.2619 10.1009Z" fill="#039BE5"/>
</g>

<g id="vk">
    <path fill-rule="evenodd" clip-rule="evenodd" d="M10.8382 15.4789H11.7408C11.7408 15.4789 12.0135 15.4489 12.1527 15.2989C12.2808 15.1611 12.2767 14.9024 12.2767 14.9024C12.2767 14.9024 12.2591 13.6913 12.8212 13.5129C13.3753 13.3372 14.0868 14.6835 14.841 15.2011C15.4113 15.5928 15.8447 15.507 15.8447 15.507L17.8613 15.4789C17.8613 15.4789 18.9162 15.4139 18.416 14.5845C18.375 14.5166 18.1247 13.9709 16.9166 12.8496C15.6522 11.6759 15.8215 11.8658 17.3447 9.83567C18.2723 8.59932 18.6431 7.84452 18.5273 7.52124C18.4168 7.21333 17.7346 7.29472 17.7346 7.29472L15.464 7.30886C15.464 7.30886 15.2957 7.2859 15.1709 7.36052C15.0489 7.4337 14.9704 7.60426 14.9704 7.60426C14.9704 7.60426 14.611 8.56099 14.1317 9.37463C13.1207 11.0915 12.7164 11.1821 12.5512 11.0755C12.1668 10.827 12.2628 10.0774 12.2628 9.54478C12.2628 7.88101 12.5151 7.1873 11.7714 7.00772C11.5246 6.94806 11.3429 6.9087 10.7117 6.90235C9.90159 6.89394 9.21587 6.90481 8.8276 7.09505C8.56931 7.22153 8.37005 7.5034 8.49141 7.5196C8.64147 7.53969 8.98135 7.61123 9.16155 7.85662C9.39422 8.17313 9.38602 8.88407 9.38602 8.88407C9.38602 8.88407 9.51968 10.8426 9.07381 11.086C8.76775 11.2528 8.34791 10.9121 7.44653 9.35454C6.98467 8.55669 6.63597 7.67478 6.63597 7.67478C6.63597 7.67478 6.56873 7.50996 6.4488 7.42181C6.30325 7.31501 6.0999 7.28098 6.0999 7.28098L3.94229 7.29512C3.94229 7.29512 3.61839 7.30415 3.49949 7.44498C3.39371 7.57023 3.49109 7.82935 3.49109 7.82935C3.49109 7.82935 5.18027 11.7813 7.09291 13.7729C8.84667 15.5988 10.8382 15.4789 10.8382 15.4789Z" fill="#597BA7"/>
</g>

</svg>
