<svg width="16" height="16" viewBox="0 0 16 16" fill="none" xmlns="http://www.w3.org/2000/svg">
<path d="M9.79375 1.02791C10.6062 1.19041 11.1344 1.98104 10.9719 2.79354L10.9 3.14979C10.7344 3.98416 10.4281 4.77791 10 5.49978H14.5C15.3281 5.49978 16 6.17166 16 6.99978C16 7.57791 15.6719 8.08104 15.1906 8.33104C15.5312 8.60604 15.75 9.02791 15.75 9.49979C15.75 10.231 15.225 10.8404 14.5344 10.9717C14.6719 11.1998 14.75 11.4654 14.75 11.7498C14.75 12.4154 14.3156 12.981 13.7156 13.1748C13.7375 13.2779 13.75 13.3873 13.75 13.4998C13.75 14.3279 13.0781 14.9998 12.25 14.9998H9.20312C8.60938 14.9998 8.03125 14.8248 7.5375 14.4967L6.33437 13.6935C5.5 13.1373 5 12.1998 5 11.1967V7.72166C5 6.80916 5.41563 5.94979 6.125 5.37791L6.35625 5.19353C7.18437 4.53103 7.75 3.59979 7.95625 2.56229L8.02812 2.20604C8.19063 1.39354 8.98125 0.86541 9.79375 1.02791ZM1 5.99978H3C3.55312 5.99978 4 6.44666 4 6.99978V13.9998C4 14.5529 3.55312 14.9998 3 14.9998H1C0.446875 14.9998 0 14.5529 0 13.9998V6.99978C0 6.44666 0.446875 5.99978 1 5.99978Z" fill="#D6E0E4"/>
</svg>
