<svg width="10" height="10" viewBox="0 0 10 10" fill="none" xmlns="http://www.w3.org/2000/svg">
<path fill-rule="evenodd" clip-rule="evenodd" d="M5.943 5.00033L9.47166 1.47166C9.73233 1.211 9.73233 0.789663 9.47166 0.528996C9.211 0.268329 8.78966 0.268329 8.52899 0.528996L5.00033 4.05766L1.47166 0.528996C1.211 0.268329 0.789663 0.268329 0.528996 0.528996C0.268329 0.789663 0.268329 1.211 0.528996 1.47166L4.05766 5.00033L0.528996 8.529C0.268329 8.78966 0.268329 9.211 0.528996 9.47166C0.658996 9.60166 0.829663 9.667 1.00033 9.667C1.171 9.667 1.34166 9.60166 1.47166 9.47166L5.00033 5.943L8.52899 9.47166C8.65899 9.60166 8.82966 9.667 9.00033 9.667C9.171 9.667 9.34166 9.60166 9.47166 9.47166C9.73233 9.211 9.73233 8.78966 9.47166 8.529L5.943 5.00033Z" fill="#D6E0E4"/>
</svg>
