<svg width="16" height="16" viewBox="0 0 16 16" fill="none" xmlns="http://www.w3.org/2000/svg">
<path fill-rule="evenodd" clip-rule="evenodd" d="M8.78626 1.5189C9.12631 1.68892 9.40205 1.96465 9.57207 2.3047L14.4814 12.1234C14.9154 12.9914 14.5636 14.0468 13.6956 14.4808C13.4516 14.6028 13.1826 14.6663 12.9098 14.6663H3.0911C2.12067 14.6663 1.33398 13.8797 1.33398 12.9092C1.33398 12.6364 1.3975 12.3674 1.51949 12.1234L6.42885 2.3047C6.86284 1.43672 7.91829 1.08491 8.78626 1.5189ZM8.00065 10.6663C8.36884 10.6663 8.66732 10.9648 8.66732 11.333C8.66732 11.7012 8.36884 11.9997 8.00065 11.9997C7.63246 11.9997 7.33398 11.7012 7.33398 11.333C7.33398 10.9648 7.63246 10.6663 8.00065 10.6663ZM8.00065 5.33301C8.36884 5.33301 8.66732 5.63148 8.66732 5.99967V8.66634C8.66732 9.03453 8.36884 9.33301 8.00065 9.33301C7.63246 9.33301 7.33398 9.03453 7.33398 8.66634V5.99967C7.33398 5.63148 7.63246 5.33301 8.00065 5.33301Z" fill="#D6E0E4"/>
</svg>
