<svg width="18" height="18" viewBox="0 0 18 18" fill="none" xmlns="http://www.w3.org/2000/svg">
<path fill-rule="evenodd" clip-rule="evenodd" d="M14.8427 13.9595L14.7803 14.0301L12.5303 16.2801C12.51 16.3004 12.4886 16.3195 12.4661 16.3373L12.3752 16.3994L12.3202 16.4282L12.2549 16.4553L12.1751 16.4792L12.0874 16.4947L12.0247 16.4994L11.9556 16.4985L11.8688 16.4883L11.7658 16.4625L11.6825 16.4295L11.6094 16.3903L11.5373 16.3402L11.4696 16.2801L9.21952 14.0301C8.92662 13.7372 8.92662 13.2624 9.21952 12.9695C9.48989 12.6991 9.91532 12.6783 10.2096 12.9071L10.2802 12.9695L11.2498 13.9385L11.2499 6.74979C11.2499 6.36517 11.5394 6.04816 11.9124 6.00484L11.9999 5.99979C12.4142 5.99979 12.7499 6.33558 12.7499 6.74979L12.7498 13.9385L13.7196 12.9695C13.99 12.6991 14.4154 12.6783 14.7097 12.9071L14.7803 12.9695C15.0282 13.2173 15.0663 13.5954 14.8947 13.8833L14.8427 13.9595ZM3.21952 3.96935L5.46957 1.71935L5.55353 1.64691L5.6367 1.59333L5.72161 1.553L5.80052 1.52647L5.86882 1.51115L5.95565 1.50098L6.04428 1.50098L6.13092 1.51113L6.23449 1.53708L6.27495 1.55172L6.34032 1.58117L6.39044 1.60923L6.4512 1.65052L6.49903 1.68983L6.53027 1.71935L8.78032 3.96935L8.84272 4.04C9.05243 4.3097 9.05243 4.68965 8.84272 4.95935L8.78032 5.03001L8.70967 5.0924C8.43996 5.3021 8.06 5.3021 7.79029 5.0924L7.71964 5.03001L6.74985 4.06093L6.74994 11.2497C6.74994 11.6343 6.46041 11.9513 6.08741 11.9946L5.99994 11.9997L5.91244 11.9946C5.56813 11.9546 5.29494 11.6815 5.25495 11.3371L5.2499 11.2497L5.24985 4.06093L4.28021 5.03001L4.20955 5.0924C3.91532 5.32117 3.48989 5.30037 3.21952 5.03001C2.94915 4.75964 2.92835 4.33422 3.15713 4.04L3.21952 3.96935Z" fill="#4192D9"/>
</svg>
