<svg width="32" height="32" viewBox="0 0 32 32" fill="none" xmlns="http://www.w3.org/2000/svg">
<g clip-path="url(#clip0_1759_3408)">
<rect width="32" height="32" fill="white"/>
<path fill-rule="evenodd" clip-rule="evenodd" d="M14.0055 11.4492H24.3217C24.5198 11.4492 24.6806 11.613 24.6806 11.8146C24.6806 12.016 24.5198 12.1798 24.3217 12.1798H14.0055C13.8071 12.1798 13.6465 12.016 13.6465 11.8146C13.6465 11.613 13.8071 11.4492 14.0055 11.4492Z" fill="#4192D9"/>
<path fill-rule="evenodd" clip-rule="evenodd" d="M14.0054 9.66523H24.3437C24.5422 9.66523 24.7027 9.8287 24.7027 10.0307C24.7027 10.2326 24.5422 10.3955 24.3437 10.3955H14.0054C13.8071 10.3955 13.6464 10.2326 13.6464 10.0307C13.6464 9.8287 13.8071 9.66523 14.0054 9.66523Z" fill="#4192D9"/>
<path fill-rule="evenodd" clip-rule="evenodd" d="M14.0055 13.4668H23.8537C24.0522 13.4668 24.3271 13.6305 24.3271 13.8314C24.3271 14.033 24.1665 14.1965 23.968 14.1965H14.0055C13.8071 14.1965 13.6465 14.033 13.6465 13.8314C13.6465 13.6305 13.8071 13.4668 14.0055 13.4668Z" fill="#4192D9"/>
<path fill-rule="evenodd" clip-rule="evenodd" d="M10.4014 8.46511H5.88829C5.53235 8.46511 5.24359 8.75871 5.24359 9.12092V13.7108C5.24359 14.0739 5.53235 14.3672 5.88829 14.3672H10.4014C10.7574 14.3672 11.0461 14.0739 11.0461 13.7108V9.12092C11.0461 8.75871 10.7574 8.46511 10.4014 8.46511Z" fill="#4192D9"/>
<path fill-rule="evenodd" clip-rule="evenodd" d="M9.75671 12.3997C9.75671 12.7622 9.46797 13.0556 9.11197 13.0556H7.0972C6.74118 13.0556 6.45247 12.7622 6.45247 12.3997V10.4329C6.45247 10.0712 6.74118 9.77674 7.0972 9.77674H9.11197C9.46797 9.77674 9.75671 10.0712 9.75671 10.4329V12.3997Z" fill="white"/>
<path fill-rule="evenodd" clip-rule="evenodd" d="M16.9972 25.7391L17.1848 25.5491H16.8135L16.9972 25.7391Z" fill="#4192D9"/>
<path fill-rule="evenodd" clip-rule="evenodd" d="M4.8361 24.8026C4.04305 24.8026 3.39998 24.1488 3.39998 23.3418V8.00491C3.39998 7.19849 4.04305 6.48634 4.8361 6.48634H25.3996C26.1926 6.48634 26.7786 7.19849 26.7786 8.00491V10.1224V17.6032L28.41 21L28.4433 7.33216C28.4433 6.12327 27.4212 4.96777 26.2319 4.96777H4.11812C2.92844 4.96777 1.96387 6.06459 1.96387 7.27467V24.0727C1.96387 25.2824 2.92844 26.2634 4.11812 26.2634H15.4967L15.7203 24.8026H4.8361Z" fill="#4192D9"/>
<path fill-rule="evenodd" clip-rule="evenodd" d="M26.746 23.3195C26.746 24.1259 26.103 24.7797 25.3098 24.7797H21.4327L19.9941 26.2405H26.2564C27.4459 26.2405 28.4108 25.2601 28.4108 24.0494V17.751L26.746 19.5004V23.3195Z" fill="#4192D9"/>
<path fill-rule="evenodd" clip-rule="evenodd" d="M5.37463 18.9014C5.17614 18.9014 5.01562 19.0648 5.01562 19.2668C5.01562 19.4685 5.17614 19.6316 5.37463 19.6316H17.9069L18.6264 18.9014H5.37463Z" fill="#4192D9"/>
<path fill-rule="evenodd" clip-rule="evenodd" d="M5.37463 20.7451C5.17614 20.7451 5.01562 20.908 5.01562 21.1096C5.01562 21.3116 5.17614 21.4745 5.37463 21.4745H17.6755L18.3951 20.7451H5.37463Z" fill="#4192D9"/>
<path fill-rule="evenodd" clip-rule="evenodd" d="M5.37453 17.1755C5.17603 17.1755 5.01552 17.3395 5.01552 17.5409C5.01552 17.7426 5.17603 17.9063 5.37453 17.9063H19.138L19.8575 17.1755H5.37453Z" fill="#4192D9"/>
<path fill-rule="evenodd" clip-rule="evenodd" d="M14.0054 15.2682H22.1394C22.3379 15.2682 22.4985 15.4313 22.4985 15.6336C22.4985 15.8344 22.3379 15.9981 22.1394 15.9981H14.0054C13.8071 15.9981 13.6464 15.8344 13.6464 15.6336C13.6464 15.4313 13.8071 15.2682 14.0054 15.2682Z" fill="#4192D9"/>
<path d="M30.8175 25.2938C30.2997 24.8222 29.8464 24.2816 29.4698 23.6864C29.0586 22.8649 28.8122 21.9678 28.745 21.0477V18.3376C28.7485 16.8923 28.2354 15.4955 27.3021 14.4096C26.3688 13.3236 25.0795 12.6232 23.6765 12.4401V11.7324C23.6765 11.5381 23.601 11.3519 23.4666 11.2145C23.3321 11.0772 23.1498 11 22.9597 11C22.7696 11 22.5873 11.0772 22.4529 11.2145C22.3185 11.3519 22.243 11.5381 22.243 11.7324V12.4511C20.8525 12.6474 19.5788 13.352 18.6577 14.4343C17.7367 15.5166 17.2307 16.9033 17.2336 18.3376V21.0477C17.1663 21.9678 16.9199 22.8649 16.5087 23.6864C16.1387 24.2802 15.6927 24.8208 15.1826 25.2938C15.1253 25.3453 15.0794 25.4085 15.0479 25.4795C15.0164 25.5504 15.0001 25.6274 15 25.7053V26.4514C15 26.5969 15.0566 26.7364 15.1573 26.8393C15.2579 26.9422 15.3945 27 15.5369 27H30.4631C30.6055 27 30.7421 26.9422 30.8427 26.8393C30.9434 26.7364 31 26.5969 31 26.4514V25.7053C30.9999 25.6274 30.9836 25.5504 30.9521 25.4795C30.9206 25.4085 30.8747 25.3453 30.8175 25.2938Z" fill="#4192D9"/>
<path d="M28.3652 24.1524C28.0098 23.7799 27.6986 23.3529 27.44 22.8828C27.1577 22.234 26.9885 21.5254 26.9424 20.7986V18.6581C26.9448 17.5166 26.5926 16.4133 25.9518 15.5556C25.3111 14.6978 24.4259 14.1447 23.4627 14L22.4785 14.0087C21.5239 14.1638 20.6494 14.7203 20.0171 15.5751C19.3848 16.43 19.0374 17.5252 19.0394 18.6581V20.7986C18.9932 21.5254 18.824 22.234 18.5417 22.8828C18.2877 23.3518 17.9815 23.7788 17.6313 24.1524C16.3441 25.5 17.337 25.5 17.8745 25.5H28.1219C28.6735 25.5 29.6524 25.5 28.3652 24.1524Z" fill="white"/>
<path d="M23.0337 28.7775C23.4596 28.7718 23.8682 28.6795 24.1873 28.5168C24.5065 28.3542 24.7156 28.1317 24.7777 27.8887H21.2222C21.286 28.1383 21.5049 28.366 21.8382 28.5295C22.1714 28.693 22.5963 28.7811 23.0337 28.7775Z" fill="#4192D9"/>
</g>
<defs>
<clipPath id="clip0_1759_3408">
<rect width="32" height="32" fill="white"/>
</clipPath>
</defs>
</svg>
