<svg width="14" height="14" viewBox="0 0 14 14" fill="none" xmlns="http://www.w3.org/2000/svg">
<path fill-rule="evenodd" clip-rule="evenodd" d="M6.33337 0.333252C9.64708 0.333252 12.3334 3.01954 12.3334 6.33325C12.3334 7.74977 11.8425 9.05164 11.0216 10.078L13.4714 12.5285C13.7318 12.7889 13.7318 13.211 13.4714 13.4713C13.2311 13.7116 12.853 13.7301 12.5914 13.5268L12.5286 13.4713L10.0782 11.0215C9.05176 11.8424 7.74989 12.3333 6.33337 12.3333C3.01967 12.3333 0.333374 9.64696 0.333374 6.33325C0.333374 3.01954 3.01967 0.333252 6.33337 0.333252ZM6.33337 1.66659C3.75604 1.66659 1.66671 3.75592 1.66671 6.33325C1.66671 8.91058 3.75604 10.9999 6.33337 10.9999C8.9107 10.9999 11 8.91058 11 6.33325C11 3.75592 8.9107 1.66659 6.33337 1.66659Z" fill="#D6E0E4"/>
</svg>
