<svg width="35" height="27" fill="none" xmlns="http://www.w3.org/2000/svg">
  <path d="M26.15 5.07H14.07c-.231 0-.42.176-.42.394 0 .218.189.394.42.394h12.08c.232 0 .42-.176.42-.394 0-.218-.188-.394-.42-.394Z" fill="#fff"/>
  <path fill-rule="evenodd" clip-rule="evenodd" d="M4.586 3.775h5.273c.416 0 .754.316.754.707v4.954c0 .392-.338.709-.754.709H4.586c-.416 0-.754-.317-.754-.709V4.482c0-.39.338-.707.754-.707Zm3.766 4.954c.416 0 .754-.316.754-.708V5.898c0-.39-.338-.708-.754-.708H5.998c-.416 0-.753.318-.753.708v2.123c0 .392.337.708.753.708h2.354Z" fill="#fff"/>
  <path d="M3.985 15.04c-.232 0-.42.176-.42.394 0 .217.188.394.42.394h13.629l.84-.789H3.985ZM3.566 17.422c0-.218.187-.394.42-.394h12.347l-.839.788H3.985c-.232 0-.42-.176-.42-.394Z" fill="#fff"/>
  <path fill-rule="evenodd" clip-rule="evenodd" d="m30.902 13.797 2.349-2.141-.014-.013 1.295-1.216s.393-.861-.305-1.517a16607.222 16607.222 0 0 1-3.287-3.088v-3.27C30.94 1.247 29.746 0 28.356 0H2.517C1.127 0 0 1.184 0 2.49v18.13c0 1.306 1.127 2.365 2.517 2.365h9.79L11.642 27l6.684-1.345 2.873-2.695h7.186c1.39 0 2.517-1.058 2.517-2.365v-6.798ZM3.356 21.408c-.927 0-1.678-.705-1.678-1.576V3.278c0-.87.751-1.639 1.678-1.639h24.028c.926 0 1.611.769 1.611 1.64v1.926c-.1.037-.158.068-.158.068L26.542 7.43a.37.37 0 0 0 .002-.04c0-.218-.188-.394-.42-.394H14.07c-.231 0-.42.176-.42.394 0 .217.189.394.42.394h12.054a.45.45 0 0 0 .043-.002l-.649.61.012.01-.821.77H14.07c-.231 0-.42.177-.42.394 0 .218.189.394.42.394h9.8l-1.235 1.157H14.07c-.231 0-.42.176-.42.395 0 .216.189.393.42.393h7.726l-1.355 1.271H3.985c-.232 0-.42.177-.42.394 0 .218.188.395.42.395H19.6l-6.865 6.438-.166 1.005H3.356ZM19.6 13.965l.263-.247.417-.392.16-.15-.84.789Zm4.27-4.005.216-.203.28-.264.241-.225.102-.095-.84.787Zm5.156 5.658-.07.067v4.123c0 .87-.75 1.576-1.677 1.576H22.88l6.146-5.766Zm-11.413 6.758.86.822.229-.213 7.63-7.138.19-.177 3.325-3.11-3.124-2.934-11.321 10.637 2.041 1.95.17.163Zm-2.954-1.413-1.022 4.126 4.114-1.218-3.092-2.908Zm15.73-8.955 2.398-2.251-3.114-2.926-2.397 2.252 3.113 2.925Z" fill="#fff"/>
</svg>
