<svg width="10" height="12" viewBox="0 0 10 12" fill="none" xmlns="http://www.w3.org/2000/svg">
<path fill-rule="evenodd" clip-rule="evenodd" d="M0.917094 10.667C0.506277 10.667 0.231523 10.2574 0.368632 9.88452L0.395345 9.82278L1.06934 8.4748C1.32449 7.9645 1.46955 7.40705 1.49601 6.83854L1.50043 6.64867V4.83366C1.50043 3.09937 2.76182 1.6597 4.41721 1.38203L4.41709 0.750326C4.41709 0.428159 4.67826 0.166992 5.00043 0.166992C5.32259 0.166992 5.58376 0.428159 5.58376 0.750326L5.58423 1.38213C7.19336 1.65232 8.43006 3.0205 8.49753 4.68985L8.50043 4.83366V6.64867C8.50043 7.2192 8.61998 7.78267 8.85056 8.303L8.93152 8.4748L9.60551 9.82278C9.78923 10.1902 9.54577 10.6191 9.15092 10.6633L9.08376 10.667H6.16709C6.16709 11.3113 5.64476 11.8337 5.00043 11.8337C4.3561 11.8337 3.83376 11.3113 3.83376 10.667H0.917094Z" fill="#D6E0E4"/>
</svg>
