<svg width="25" height="25" viewBox="0 0 25 25" fill="none" xmlns="http://www.w3.org/2000/svg">
<path d="M22 0H3C1.34315 0 0 1.34315 0 3V22C0 23.6569 1.34315 25 3 25H22C23.6569 25 25 23.6569 25 22V3C25 1.34315 23.6569 0 22 0Z" fill="#44678D"/>
<path d="M7.72854 8.92903C8.20314 10.0091 8.80462 11.0275 9.59681 11.9417C9.70188 12.0633 9.83433 12.1715 9.97386 12.2595C10.1777 12.3885 10.3699 12.3432 10.4528 12.1284C10.5404 11.9029 10.6209 11.446 10.6257 11.2092C10.6387 10.5906 10.6237 10.1852 10.5876 9.56735C10.5643 9.17162 10.4116 8.82415 9.77997 8.71927C9.58491 8.68676 9.56679 8.53879 9.69211 8.39119C9.953 8.08388 10.3164 8.0349 10.7106 8.01552C11.3493 7.98373 11.9904 8.00968 12.63 8.01552C12.8905 8.01773 13.1525 8.03707 13.4091 8.08861C13.7437 8.15584 13.9229 8.37216 13.9781 8.67322C14.0066 8.82852 14.0213 8.98818 14.0173 9.14531C14.0007 9.82055 13.9654 10.4954 13.957 11.1703C13.9535 11.4352 13.9745 11.7067 14.036 11.9647C14.122 12.3242 14.3876 12.4145 14.6592 12.1547C15.0042 11.8248 15.3083 11.4535 15.5938 11.0764C16.1124 10.3906 16.4997 9.63791 16.8332 8.86183C17.0056 8.46138 17.1377 8.37441 17.6051 8.37333C18.4837 8.37148 19.3624 8.37076 20.241 8.37333C20.3968 8.37405 20.5598 8.38758 20.7069 8.43071C20.9455 8.50087 21.0403 8.68027 20.9844 8.90793C20.8539 9.44141 20.5411 9.89484 20.2061 10.3308C19.6685 11.0301 19.105 11.7127 18.5547 12.404C18.4846 12.492 18.4227 12.5859 18.3652 12.6813C18.1594 13.024 18.1737 13.2162 18.4738 13.5016C18.9516 13.9558 19.4631 14.3807 19.9258 14.8473C20.262 15.1868 20.5732 15.555 20.8397 15.9427C21.1767 16.4331 20.9685 16.8949 20.3389 16.9771C19.9429 17.0287 18.0081 16.9775 17.9081 16.9771C17.3879 16.975 16.9319 16.8087 16.5648 16.4831C16.1564 16.1207 15.7853 15.7231 15.3931 15.3449C15.275 15.2309 15.1489 15.1217 15.0129 15.0263C14.6921 14.8008 14.3773 14.8509 14.2275 15.198C14.0994 15.4962 13.9888 16.2792 13.9836 16.3461C13.9567 16.6958 13.7152 16.9187 13.2901 16.9402C12.063 17.0016 10.8739 16.8755 9.76615 16.3286C8.82726 15.8652 8.07751 15.2101 7.42806 14.4461C6.39639 13.2326 5.58152 11.8986 4.83755 10.5255C4.79953 10.4553 4.04601 8.97765 4.02576 8.90785C3.95845 8.67414 4.02124 8.45089 4.23551 8.37405C4.36908 8.32615 6.85348 8.37389 6.8948 8.37593C7.29123 8.39571 7.56155 8.54984 7.72854 8.92903Z" fill="white"/>
</svg>
