<svg width="16" height="16" viewBox="0 0 16 16" fill="none" xmlns="http://www.w3.org/2000/svg">
<path fill-rule="evenodd" clip-rule="evenodd" d="M7.33301 1.33301C10.6467 1.33301 13.333 4.0193 13.333 7.33301C13.333 8.74953 12.8421 10.0514 12.0212 11.0778L14.4711 13.5283C14.7314 13.7886 14.7314 14.2107 14.4711 14.4711C14.2308 14.7114 13.8526 14.7299 13.5911 14.5265L13.5283 14.4711L11.0778 12.0212C10.0514 12.8421 8.74953 13.333 7.33301 13.333C4.0193 13.333 1.33301 10.6467 1.33301 7.33301C1.33301 4.0193 4.0193 1.33301 7.33301 1.33301ZM7.33301 2.66634C4.75568 2.66634 2.66634 4.75568 2.66634 7.33301C2.66634 9.91034 4.75568 11.9997 7.33301 11.9997C9.91034 11.9997 11.9997 9.91034 11.9997 7.33301C11.9997 4.75568 9.91034 2.66634 7.33301 2.66634Z" fill="#4192D9"/>
</svg>
