<svg width="32" height="32" fill="none" xmlns="http://www.w3.org/2000/svg">
  <path fill-rule="evenodd" clip-rule="evenodd" d="M13.005 10.45h10.317c.198 0 .359.163.359.365 0 .201-.161.365-.36.365H13.006a.362.362 0 0 1-.359-.365c0-.202.161-.366.36-.366ZM13.005 8.665h10.339c.198 0 .359.164.359.366 0 .202-.16.364-.36.364H13.006a.362.362 0 0 1-.359-.364c0-.202.161-.366.36-.366ZM13.005 12.467h9.849c.198 0 .473.163.473.364 0 .202-.16.366-.359.366h-9.963a.362.362 0 0 1-.359-.366c0-.2.161-.364.36-.364ZM9.401 7.465H4.888a.65.65 0 0 0-.644.656v4.59a.65.65 0 0 0 .644.656h4.513a.65.65 0 0 0 .645-.656V8.12a.65.65 0 0 0-.645-.656Z" fill="#4192D9"/>
  <path fill-rule="evenodd" clip-rule="evenodd" d="M8.757 11.4a.65.65 0 0 1-.645.656H6.097a.65.65 0 0 1-.645-.656V9.433c0-.362.29-.656.645-.656h2.015c.356 0 .645.294.645.656V11.4Z" fill="#fff"/>
  <path fill-rule="evenodd" clip-rule="evenodd" d="m15.997 24.74.188-.19h-.371l.183.19ZM3.836 23.803A1.449 1.449 0 0 1 2.4 22.342V7.005c0-.806.643-1.518 1.436-1.518h20.563c.793 0 1.38.712 1.38 1.518v2.118l-.136-.27s1.247.402 1.8.695V6.332c0-1.209-1.022-2.364-2.211-2.364H3.118c-1.19 0-2.154 1.097-2.154 2.307v16.798c0 1.21.964 2.19 2.154 2.19h8.378l.224-1.46H3.836ZM25.746 22.32c0 .806-.643 1.46-1.436 1.46h-3.878l-1.438 1.46h6.262c1.19 0 2.154-.98 2.154-2.19V16.75l-1.664 1.75v3.819Z" fill="#4192D9"/>
  <path fill-rule="evenodd" clip-rule="evenodd" d="M4.375 17.902a.362.362 0 0 0-.36.366c0 .201.161.365.36.365h12.532l.72-.73H4.374ZM4.375 19.746a.361.361 0 0 0-.36.365c0 .202.161.364.36.364h11.3l.72-.729H4.375ZM4.375 16.175a.362.362 0 0 0-.36.366c0 .202.161.365.36.365h13.763l.72-.73H4.375Z" fill="#4192D9"/>
  <path fill-rule="evenodd" clip-rule="evenodd" d="M30.256 12.223 27.07 8.982a1.014 1.014 0 0 0-.256-.19c-.553-.293-1.171.062-1.171.062l-.265.269-2.575 2.62.01.01-3.955 4.016-.72.73L16.7 17.96l-.72.73-1.438 1.461-.72.73-1.96 1.99-.142.932-.224 1.46-.569 3.72 5.72-1.246 2.437-2.473 4.33-4.396.275-.28 1.69-1.716 1.435-1.459 2.606-2.646-.01-.011 1.107-1.127s.337-.799-.26-1.406Z" fill="#4192D9"/>
  <path fill-rule="evenodd" clip-rule="evenodd" d="m12.635 27.213.874-3.823 2.646 2.695-3.52 1.128ZM25.378 16.749l-1.715 1.737-.164.165-1.481 1.5-.722.73-2.884 2.922-1.443 1.46-.195.198-.191-.197-1.412-1.461-1.026-1.062 1.829-1.86.718-.73 1.436-1.46.718-.73 1.436-1.461.718-.73 2.834-2.883 1.544 1.57 1.13 1.148-1.13 1.144ZM26.972 15.094l-.158-.16-1.436-1.46-1.071-1.09 1.071-1.09.98-.997.456.463 2.21 2.248-2.052 2.086Z" fill="#fff"/>
  <path fill-rule="evenodd" clip-rule="evenodd" d="M13.005 14.268h8.134c.199 0 .36.163.36.366 0 .2-.161.364-.36.364h-8.134a.362.362 0 0 1-.359-.364c0-.203.161-.366.36-.366Z" fill="#4192D9"/>
</svg>
