<svg width="16" height="16" viewBox="0 0 16 16" fill="none" xmlns="http://www.w3.org/2000/svg">
<path fill-rule="evenodd" clip-rule="evenodd" d="M8.46137 9.93918C14.5441 9.93918 14.9921 7.63129 14.9921 7.63129V12.5753C14.9921 12.5753 15.2075 13.9382 13.3465 13.9382H3.76576C3.76576 13.9382 2.06845 14.4654 2.06845 12.446V7.99936C2.06845 7.99936 3.39528 9.93918 8.46137 9.93918ZM8.49583 8.97424C4.20517 8.97424 2.06845 6.97473 2.06845 6.97473V5.97995C2.06845 5.97995 1.56012 3.99039 3.30912 3.99039H5.51477C5.51477 3.99039 5.13567 2.00082 6.78129 2.00082H10.331C10.331 2.00082 11.52 1.91129 11.52 3.96054L13.9152 3.99039C13.9152 3.99039 14.9921 3.90086 14.9921 5.97995V6.84541C14.9921 6.84541 13.6222 8.97424 8.49583 8.97424ZM10.6842 3.96054C10.6842 3.96054 11.0633 2.96576 10.1501 2.96576H6.61759C6.61759 2.96576 6.37635 3.08513 6.37635 3.99039L10.6842 3.96054ZM9.39188 10.9837C9.39188 10.4366 9.41772 9.92923 9.41772 9.92923L7.64287 9.95907C7.64287 9.95907 7.64287 10.4366 7.64287 10.9837C7.64287 11.5308 8.03058 11.9486 8.50445 11.9486H8.5303C9.00417 11.9486 9.39188 11.5308 9.39188 10.9837Z" fill="#D6E0E4"/>
</svg>
