<svg width="14" height="14" viewBox="0 0 14 14" fill="none" xmlns="http://www.w3.org/2000/svg">
<path fill-rule="evenodd" clip-rule="evenodd" d="M11.7346 11.24C11.0146 11.96 9.01456 12.12 7.89456 12.12C7.89456 12.6 7.4146 13 6.9346 13C6.3746 13 5.97459 12.6 5.97459 12.12C4.77459 12.12 2.93456 11.88 2.29456 11.24C1.33456 10.36 3.01459 8.67999 3.17459 7.23999C3.41459 4.99999 4.37456 3.00001 5.89456 2.36001C5.89456 2.30668 5.86792 2.22666 5.81458 2.12C5.86792 2.06666 5.89456 2.01334 5.89456 1.96001C5.89456 1.80001 5.94791 1.64 6.05457 1.48C6.29457 1.24 6.61458 1 7.01458 1C7.65458 1 8.1346 1.56 8.1346 2.12C8.1346 2.22666 8.1346 2.30668 8.1346 2.36001C9.5746 3.00001 10.6146 4.91999 10.8546 7.23999C11.0146 8.67999 12.6946 10.36 11.7346 11.24ZM6.61458 2.12C6.61458 2.36 6.77458 2.52 7.01458 2.52C7.25458 2.52 7.41458 2.36 7.41458 2.12C7.41458 2.06666 7.38794 2.01334 7.3346 1.96001C7.2546 1.80001 7.17458 1.72 7.01458 1.72C6.85458 1.72 6.77456 1.80001 6.69456 1.96001C6.64123 2.01334 6.61458 2.06666 6.61458 2.12ZM6.45457 2.92C6.45457 2.92 4.3746 4.84 4.1346 7C4.0546 7.64 3.73458 8.27999 3.41458 8.83999C3.33458 9.15999 3.0146 9.71999 2.9346 10.04C2.9346 10.12 3.01458 10.12 3.01458 10.2C3.01458 10.2 3.01456 10.28 3.09456 10.36C3.49456 10.68 4.69458 10.76 4.61458 10.68C4.61458 4.68 6.45457 2.92 6.45457 2.92Z" fill="#D6E0E4"/>
</svg>
