<svg width="16" height="16" viewBox="0 0 16 16" fill="none" xmlns="http://www.w3.org/2000/svg">
<g id="material-symbols:person">
<path id="&#208;&#187;&#208;&#184;&#209;&#135;&#208;&#189;&#209;&#139;&#208;&#185; &#208;&#186;&#208;&#176;&#208;&#177;&#208;&#184;&#208;&#189;&#208;&#181;&#209;&#130;" fill-rule="evenodd" clip-rule="evenodd" d="M7.51062 1.11627C7.51062 1.11627 7.04558 1 8.67322 1C11.1147 1 11.4635 3.90651 11.4635 3.90651C11.4635 3.90651 11.4635 6.92926 11.4635 7.74308C11.4635 8.44064 9.95203 8.9057 10.0683 8.67318C10.1845 8.67318 10.0683 10.5334 10.0683 10.5334L15.3 12.9748V14.835H1V12.9748L6.11541 10.5334V8.67318C6.11541 8.67318 4.83658 8.5569 4.83658 7.74308C4.83658 6.813 4.83658 3.90651 4.83658 3.90651C4.83658 3.90651 5.18541 1.11627 7.51062 1.11627Z" fill="#D6E0E4"/>
</g>
</svg>
