<svg width="32" height="32" fill="none" xmlns="http://www.w3.org/2000/svg">
  <path fill-rule="evenodd" clip-rule="evenodd" d="m30.025 18.73-1.884-.378-.057-.012a7.62 7.62 0 0 0-.34-.816l.397-.596.702-1.054a1.267 1.267 0 0 0-.159-1.598l-.543-.543V8.84a2.265 2.265 0 0 0-2.265-2.266h-6.129V3.388c0-.416-.189-1.51-1.573-1.51h-6.506c-1.171 0-1.321 1.094-1.321 1.51v3.187H3.224A2.265 2.265 0 0 0 .96 8.841v16.14a2.265 2.265 0 0 0 2.265 2.265h9.809c.035.047.058.1.1.144l1.22 1.218a1.263 1.263 0 0 0 1.598.159l1.649-1.1c.264.128.537.242.817.34l.388 1.942a1.267 1.267 0 0 0 1.243 1.018h1.723c.604 0 1.124-.426 1.242-1.018l.389-1.942c.28-.098.553-.212.816-.34l1.65 1.1a1.262 1.262 0 0 0 1.598-.159l1.218-1.218a1.267 1.267 0 0 0 .159-1.599l-.702-1.052-.397-.597c.128-.264.241-.536.34-.817l.057-.011 1.884-.377a1.268 1.268 0 0 0 1.018-1.243v-1.723c0-.603-.426-1.124-1.018-1.242Z" fill="#4192D9"/>
  <path fill-rule="evenodd" clip-rule="evenodd" d="M11.88 4.29c0-.416.089-.813.844-.813h4.762c.742 0 .755.368.755.785v.135h-6.36v-.106ZM11.88 5.821v-.528h6.302v1.283H11.88V5.82ZM2.47 9.596c0-.834.675-1.51 1.51-1.51h21.14c.835 0 1.51.676 1.51 1.51v3.097c-.02-.001-.04-.006-.06-.006-.244 0-.489.07-.702.212l-1.65 1.1a7.478 7.478 0 0 0-.817-.34l-.388-1.94a1.266 1.266 0 0 0-1.242-1.02h-1.723c-.604 0-1.125.427-1.243 1.02l-.388 1.94a7.65 7.65 0 0 0-.817.34l-1.65-1.1a1.27 1.27 0 0 0-1.598.16l-1.219 1.218a1.267 1.267 0 0 0-.157 1.598l.072.109H9.265v-1.636a1.51 1.51 0 0 0-1.51-1.51h-.756a1.51 1.51 0 0 0-1.51 1.51v1.636H2.47V9.596Z" fill="#fff"/>
  <path fill-rule="evenodd" clip-rule="evenodd" d="M8.447 14.782v2.425c0 .45-.339.812-.756.812h-.63c-.416 0-.754-.362-.754-.812v-2.425c0-.541.293-.985.755-.985h.692c.325 0 .693.444.693.985Z" fill="#fff"/>
  <path fill-rule="evenodd" clip-rule="evenodd" d="M13.013 25.737H3.979a1.51 1.51 0 0 1-1.51-1.51v-7.3h3.02v.504c0 .834.676 1.51 1.51 1.51h.755a1.51 1.51 0 0 0 1.51-1.51v-.504h4.413l.398.598a7.413 7.413 0 0 0-.34.817l-1.941.388a1.266 1.266 0 0 0-1.02 1.242v1.723c0 .604.427 1.124 1.02 1.243l1.941.388c.098.281.213.554.34.817l-1.062 1.594Z" fill="#fff"/>
  <path fill-rule="evenodd" clip-rule="evenodd" d="m29.54 21.672-1.4.28-.49.099c-.428.085-.779.39-.923.803-.027.08-.065.154-.096.233-.057.143-.111.29-.18.43-.19.393-.158.858.085 1.222l1.07 1.605-.58.578-.607.607-.44-.293-1.165-.776a1.232 1.232 0 0 0-1.221-.084 6.08 6.08 0 0 1-.663.276c-.3.104-.541.32-.684.594a1.224 1.224 0 0 0-.12.329l-.378 1.891H20.07l-.378-1.892a1.227 1.227 0 0 0-.12-.328 1.228 1.228 0 0 0-.683-.594 6.218 6.218 0 0 1-.663-.275 1.226 1.226 0 0 0-1.222.083l-1.18.786-.425.283-.283-.283-.904-.902.405-.607.665-.998c.243-.364.274-.828.085-1.222a6.17 6.17 0 0 1-.277-.662 1.23 1.23 0 0 0-.922-.804l-1.89-.38v-1.676l1.89-.378c.428-.085.78-.392.922-.804.08-.228.172-.449.276-.663.191-.393.16-.859-.084-1.221l-.417-.627-.213-.318-.44-.66 1.187-1.187 1.605 1.07a1.232 1.232 0 0 0 1.22.084c.215-.104.436-.197.664-.276.412-.144.718-.495.804-.922l.378-1.89 1.678-.002.377 1.892c.086.427.392.778.805.922.227.079.448.171.663.275a1.232 1.232 0 0 0 1.221-.083l1.605-1.07.212.211.975.975-.975 1.463-.095.143a1.233 1.233 0 0 0-.084 1.22c.067.139.121.286.179.431.03.079.069.152.096.232.144.412.495.718.923.804l.49.098 1.4.28v1.678Z" fill="#fff"/>
  <path fill-rule="evenodd" clip-rule="evenodd" d="M20.956 16.447a4.435 4.435 0 1 0 .002 8.869 4.435 4.435 0 0 0-.002-8.87Z" fill="#4192D9"/>
  <path fill-rule="evenodd" clip-rule="evenodd" d="M20.956 24.76a3.88 3.88 0 1 1 .002-7.76 3.88 3.88 0 0 1-.002 7.76Z" fill="#fff"/>
  <path fill-rule="evenodd" clip-rule="evenodd" d="M20.956 18.347a2.533 2.533 0 1 0 0 5.067 2.533 2.533 0 0 0 0-5.067Z" fill="#4192D9"/>
  <path fill-rule="evenodd" clip-rule="evenodd" d="M20.956 22.781a1.9 1.9 0 1 1 .001-3.801 1.9 1.9 0 0 1 0 3.801Z" fill="#fff"/>
</svg>
