<svg width="21" height="20" viewBox="0 0 21 20" fill="none" xmlns="http://www.w3.org/2000/svg">
<g filter="url(#filter0_i_1636_3193)">
<path d="M12.4047 3.05039C11.9919 1.64987 10.0081 1.64987 9.59534 3.05039L9.49523 3.39003C9.23147 4.2849 8.20935 4.70827 7.39008 4.26201L7.07913 4.09264C5.79692 3.39422 4.39422 4.79693 5.09264 6.07913L5.26201 6.39008C5.70827 7.20935 5.2849 8.23147 4.39003 8.49523L4.05039 8.59534C2.64987 9.00814 2.64987 10.9919 4.05039 11.4047L4.39003 11.5048C5.2849 11.7685 5.70827 12.7906 5.26201 13.6099L5.09264 13.9209C4.39422 15.2031 5.79692 16.6058 7.07913 15.9074L7.39008 15.738C8.20935 15.2917 9.23147 15.7151 9.49523 16.61L9.59534 16.9496C10.0081 18.3501 11.9919 18.3501 12.4047 16.9496L12.5048 16.61C12.7685 15.7151 13.7906 15.2917 14.6099 15.738L14.9209 15.9074C16.2031 16.6058 17.6058 15.2031 16.9074 13.9209L16.738 13.6099C16.2917 12.7906 16.7151 11.7685 17.61 11.5048L17.9496 11.4047C19.3501 10.9919 19.3501 9.00814 17.9496 8.59534L17.61 8.49523C16.7151 8.23147 16.2917 7.20935 16.738 6.39008L16.9074 6.07913C17.6058 4.79692 16.2031 3.39422 14.9209 4.09264L14.6099 4.26201C13.7906 4.70827 12.7685 4.2849 12.5048 3.39003L12.4047 3.05039ZM11 12.9288C9.38246 12.9288 8.07119 11.6175 8.07119 10C8.07119 8.38246 9.38246 7.07119 11 7.07119C12.6175 7.07119 13.9288 8.38246 13.9288 10C13.9288 11.6175 12.6175 12.9288 11 12.9288Z" fill="#4192D9"/>
</g>
<defs>
<filter id="filter0_i_1636_3193" x="3" y="2" width="16" height="17" filterUnits="userSpaceOnUse" color-interpolation-filters="sRGB">
<feFlood flood-opacity="0" result="BackgroundImageFix"/>
<feBlend mode="normal" in="SourceGraphic" in2="BackgroundImageFix" result="shape"/>
<feColorMatrix in="SourceAlpha" type="matrix" values="0 0 0 0 0 0 0 0 0 0 0 0 0 0 0 0 0 0 127 0" result="hardAlpha"/>
<feOffset dy="1"/>
<feGaussianBlur stdDeviation="0.5"/>
<feComposite in2="hardAlpha" operator="arithmetic" k2="-1" k3="1"/>
<feColorMatrix type="matrix" values="0 0 0 0 0.439216 0 0 0 0 0.52549 0 0 0 0 0.6 0 0 0 0.73 0"/>
<feBlend mode="normal" in2="shape" result="effect1_innerShadow_1636_3193"/>
</filter>
</defs>
</svg>
