<svg width="16" height="16" viewBox="0 0 16 16" fill="none" xmlns="http://www.w3.org/2000/svg">
<g filter="url(#filter0_i_1955_986)">
<path fill-rule="evenodd" clip-rule="evenodd" d="M3.44175 14.6681H6.48058H12.5583C12.7735 14.6681 12.9538 14.5952 13.0992 14.4493C13.245 14.304 13.318 14.1237 13.318 13.9084V8.59047H14.6095C14.7867 8.59047 14.907 8.50817 14.9703 8.34357C15.0336 8.17896 14.9956 8.03968 14.8564 7.92573L13.318 6.53926V3.27251C13.318 3.05726 13.245 2.8767 13.0992 2.73084C12.9538 2.58548 12.7735 2.5128 12.5583 2.5128H11.7985C11.5833 2.5128 11.403 2.58548 11.2576 2.73084C11.1118 2.8767 11.0388 3.05726 11.0388 3.27251V4.48804L8.5128 2.20892C8.37352 2.06964 8.20259 2 8 2C7.79741 2 7.62648 2.06964 7.4872 2.20892L1.14363 7.92573C1.00435 8.03968 0.966367 8.17896 1.02968 8.34357C1.09299 8.50817 1.21327 8.59047 1.39054 8.59047H2.68204V13.9084C2.68204 14.1237 2.75472 14.304 2.90008 14.4493C3.04594 14.5952 3.2265 14.6681 3.44175 14.6681ZM7 7.5C6.44772 7.5 6 7.94772 6 8.5V10.5C6 11.0523 6.44772 11.5 7 11.5H9C9.55229 11.5 10 11.0523 10 10.5V8.5C10 7.94772 9.55229 7.5 9 7.5H7Z" fill="#D6E0E4"/>
</g>
<defs>
<filter id="filter0_i_1955_986" x="1" y="2" width="14" height="13.668" filterUnits="userSpaceOnUse" color-interpolation-filters="sRGB">
<feFlood flood-opacity="0" result="BackgroundImageFix"/>
<feBlend mode="normal" in="SourceGraphic" in2="BackgroundImageFix" result="shape"/>
<feColorMatrix in="SourceAlpha" type="matrix" values="0 0 0 0 0 0 0 0 0 0 0 0 0 0 0 0 0 0 127 0" result="hardAlpha"/>
<feOffset dy="1"/>
<feGaussianBlur stdDeviation="0.5"/>
<feComposite in2="hardAlpha" operator="arithmetic" k2="-1" k3="1"/>
<feColorMatrix type="matrix" values="0 0 0 0 0.439216 0 0 0 0 0.52549 0 0 0 0 0.6 0 0 0 0.73 0"/>
<feBlend mode="normal" in2="shape" result="effect1_innerShadow_1955_986"/>
</filter>
</defs>
</svg>
