<svg width="18" height="16" viewBox="0 0 18 16" fill="none" xmlns="http://www.w3.org/2000/svg">
<path fill-rule="evenodd" clip-rule="evenodd" d="M9 10.6668C9.97969 10.6668 10.8131 11.2234 11.122 12.0002L15.75 12.0002C16.1642 12.0002 16.5 12.2986 16.5 12.6668C16.5 13.035 16.1642 13.3335 15.75 13.3335L11.1217 13.3341C10.8127 14.1106 9.97941 14.6668 9 14.6668C8.02059 14.6668 7.18734 14.1106 6.87827 13.3341L2.25 13.3335C1.83579 13.3335 1.5 13.035 1.5 12.6668C1.5 12.2986 1.83579 12.0002 2.25 12.0002L6.87801 12.0002C7.18686 11.2234 8.02031 10.6668 9 10.6668ZM9 12.0002C8.58579 12.0002 8.25 12.2986 8.25 12.6668C8.25 13.035 8.58579 13.3335 9 13.3335C9.41421 13.3335 9.75 13.035 9.75 12.6668C9.75 12.2986 9.41421 12.0002 9 12.0002ZM14.25 6.00016C15.4926 6.00016 16.5 6.89559 16.5 8.00016C16.5 9.10473 15.4926 10.0002 14.25 10.0002C13.2706 10.0002 12.4373 9.44391 12.1283 8.66743L2.25 8.66683C1.83579 8.66683 1.5 8.36835 1.5 8.00016C1.5 7.63197 1.83579 7.3335 2.25 7.3335L12.128 7.33355C12.4369 6.55673 13.2703 6.00016 14.25 6.00016ZM14.25 7.3335C13.8358 7.3335 13.5 7.63197 13.5 8.00016C13.5 8.36835 13.8358 8.66683 14.25 8.66683C14.6642 8.66683 15 8.36835 15 8.00016C15 7.63197 14.6642 7.3335 14.25 7.3335ZM3.75 1.3335C4.73385 1.3335 5.57021 1.8948 5.8759 2.6768C5.91599 2.66996 5.95758 2.66683 6 2.66683H15.75C16.1642 2.66683 16.5 2.96531 16.5 3.3335C16.5 3.70169 16.1642 4.00016 15.75 4.00016H6C5.95758 4.00016 5.91599 3.99703 5.87549 3.99102C5.57021 4.77219 4.73385 5.3335 3.75 5.3335C2.50736 5.3335 1.5 4.43807 1.5 3.3335C1.5 2.22893 2.50736 1.3335 3.75 1.3335ZM3.75 2.66683C3.33579 2.66683 3 2.96531 3 3.3335C3 3.70169 3.33579 4.00016 3.75 4.00016C4.16421 4.00016 4.5 3.70169 4.5 3.3335C4.5 2.96531 4.16421 2.66683 3.75 2.66683Z" fill="#4192D9"/>
</svg>
