<svg width="16" height="16" viewBox="0 0 16 16" fill="none" xmlns="http://www.w3.org/2000/svg">
<g filter="url(#filter0_i_1757_2544)">
<path d="M13.6 2H2.4C1.623 2 1 2.623 1 3.4V13.2C1 13.977 1.623 14.6 2.4 14.6H13.6C14.377 14.6 15 13.977 15 13.2V3.4C15 2.623 14.377 2 13.6 2ZM3.1 4.8H6.6V9H3.1V4.8ZM12.9 11.8H3.1V10.4H12.9V11.8ZM12.9 9H8V7.6H12.9V9ZM12.9 6.2H8V4.8H12.9V6.2Z" fill="#D6E0E4"/>
</g>
<defs>
<filter id="filter0_i_1757_2544" x="1" y="2" width="14" height="13.6001" filterUnits="userSpaceOnUse" color-interpolation-filters="sRGB">
<feFlood flood-opacity="0" result="BackgroundImageFix"/>
<feBlend mode="normal" in="SourceGraphic" in2="BackgroundImageFix" result="shape"/>
<feColorMatrix in="SourceAlpha" type="matrix" values="0 0 0 0 0 0 0 0 0 0 0 0 0 0 0 0 0 0 127 0" result="hardAlpha"/>
<feOffset dy="1"/>
<feGaussianBlur stdDeviation="0.5"/>
<feComposite in2="hardAlpha" operator="arithmetic" k2="-1" k3="1"/>
<feColorMatrix type="matrix" values="0 0 0 0 0.439216 0 0 0 0 0.52549 0 0 0 0 0.6 0 0 0 0.73 0"/>
<feBlend mode="normal" in2="shape" result="effect1_innerShadow_1757_2544"/>
</filter>
</defs>
</svg>
