<svg width="16" height="16" viewBox="0 0 16 16" fill="none" xmlns="http://www.w3.org/2000/svg">
<path fill-rule="evenodd" clip-rule="evenodd" d="M13.4093 1.27383C13.496 1.18706 13.599 1.11822 13.7123 1.07123C13.8256 1.02425 13.9471 1.00004 14.0697 1C14.1924 0.999957 14.3139 1.02408 14.4272 1.07098C14.5406 1.11788 14.6436 1.18666 14.7304 1.27337C14.8171 1.36008 14.886 1.46303 14.933 1.57635C14.98 1.68967 15.0042 1.81113 15.0042 1.9338C15.0042 2.05647 14.9801 2.17795 14.9332 2.2913C14.8863 2.40466 14.8175 2.50766 14.7308 2.59443L14.0705 3.25566L12.749 1.93413L13.4093 1.27383ZM13.4093 3.91596L6.99031 10.335H5.66972V9.01342L12.0887 2.5935L13.4102 3.91503L13.4093 3.91596ZM2.86789 13.5991C2.74404 13.5991 2.62526 13.5499 2.53769 13.4623C2.45011 13.3747 2.40092 13.256 2.40092 13.1321V3.79268C2.40092 3.66883 2.45011 3.55006 2.53769 3.46248C2.62526 3.37491 2.74404 3.32571 2.86789 3.32571H8.70503C8.89081 3.32571 9.06897 3.25191 9.20033 3.12055C9.33169 2.98919 9.40549 2.81102 9.40549 2.62525C9.40549 2.43948 9.33169 2.26131 9.20033 2.12995C9.06897 1.99859 8.89081 1.92479 8.70503 1.92479H2.86789C2.37249 1.92479 1.89739 2.12159 1.54709 2.47188C1.19679 2.82218 1 3.29729 1 3.79268V13.1321C1 13.6275 1.19679 14.1026 1.54709 14.4529C1.89739 14.8032 2.37249 15 2.86789 15H12.2073C12.7027 15 13.1778 14.8032 13.5281 14.4529C13.8784 14.1026 14.0752 13.6275 14.0752 13.1321V7.29497C14.0752 7.10919 14.0014 6.93103 13.87 6.79967C13.7387 6.66831 13.5605 6.59451 13.3747 6.59451C13.189 6.59451 13.0108 6.66831 12.8795 6.79967C12.7481 6.93103 12.6743 7.10919 12.6743 7.29497V13.1321C12.6743 13.256 12.6251 13.3747 12.5375 13.4623C12.4499 13.5499 12.3312 13.5991 12.2073 13.5991H2.86789Z" fill="#4192D9"/>
</svg>
