<svg xmlns="http://www.w3.org/2000/svg" width="16" height="16" fill="none"><g filter="url(#a)"><path fill="#D6E0E4" d="M8 1a5.507 5.507 0 0 0-5.5 5.5 5.444 5.444 0 0 0 1.108 3.3s.15.197.175.226L8 15l4.22-4.976.172-.224v-.002A5.442 5.442 0 0 0 13.5 6.5 5.506 5.506 0 0 0 8 1Zm0 7.5a2 2 0 1 1 0-4 2 2 0 0 1 0 4Z"/></g><defs><filter id="a" width="11" height="15" x="2.5" y="1" color-interpolation-filters="sRGB" filterUnits="userSpaceOnUse"><feFlood flood-opacity="0" result="BackgroundImageFix"/><feBlend in="SourceGraphic" in2="BackgroundImageFix" result="shape"/><feColorMatrix in="SourceAlpha" result="hardAlpha" values="0 0 0 0 0 0 0 0 0 0 0 0 0 0 0 0 0 0 127 0"/><feOffset dy="1"/><feGaussianBlur stdDeviation=".5"/><feComposite in2="hardAlpha" k2="-1" k3="1" operator="arithmetic"/><feColorMatrix values="0 0 0 0 0.439216 0 0 0 0 0.52549 0 0 0 0 0.6 0 0 0 0.73 0"/><feBlend in2="shape" result="effect1_innerShadow_1955_766"/></filter></defs></svg>