<svg xmlns="http://www.w3.org/2000/svg">
<style xmlns="http://www.w3.org/2000/svg">
g { display: none; }
g:target { display: inline; }
</style>

<g id="facebook">
    <rect width="38" height="38" rx="3" fill="#4267B2"/>
    <path d="M28.7856 8H9.21336C8.54315 8.00034 7.99983 8.54399 8 9.21437V28.7866C8.00034 29.4568 8.54399 30.0002 9.21437 30H28.7856C29.4562 30.0002 29.9998 29.4567 30 28.7861C30 28.786 30 28.7858 30 28.7856V9.21336C29.9997 8.54315 29.456 7.99983 28.7856 8Z" fill="#4267B2"/>
    <path d="M20.5703 29.9995V20.7182H23.6992L24.168 17.0854H20.5703V14.7717C20.5703 13.7223 20.8616 13.0073 22.3664 13.0073H24.2734V9.76685C23.9417 9.72272 22.8033 9.62402 21.4787 9.62402C18.7131 9.62402 16.8203 11.3115 16.8203 14.4119V17.0854H13.7031V20.7182H16.8203V29.9995H20.5703Z" fill="white"/>
</g>
<g id="google">
    <rect x="0.5" y="0.5" width="37" height="37" rx="2.5" fill="white" stroke="#D6E0E4"/>
    <path d="M13.9892 20.8775L13.3626 23.2165L11.0726 23.2649C10.3882 21.9955 10 20.5432 10 18.9998C10 17.5074 10.363 16.1001 11.0063 14.8608H11.0068L13.0456 15.2346L13.9387 17.2612C13.7518 17.8061 13.6499 18.3911 13.6499 18.9998C13.6499 19.6605 13.7696 20.2935 13.9892 20.8775Z" fill="#FBBB00"/>
    <path d="M27.8421 17.3193C27.9455 17.8638 27.9994 18.426 27.9994 19.0006C27.9994 19.645 27.9316 20.2735 27.8026 20.8798C27.3645 22.9428 26.2197 24.7443 24.6338 26.0191L24.6333 26.0187L22.0654 25.8876L21.7019 23.6188C22.7542 23.0017 23.5766 22.0359 24.0098 20.8798H19.1973V17.3193H24.08H27.8421Z" fill="#518EF8"/>
    <path d="M24.6335 26.0183L24.634 26.0188C23.0917 27.2585 21.1324 28.0002 18.9997 28.0002C15.5723 28.0002 12.5924 26.0846 11.0723 23.2654L13.9889 20.8779C14.7489 22.9064 16.7056 24.3503 18.9997 24.3503C19.9857 24.3503 20.9094 24.0838 21.7021 23.6185L24.6335 26.0183Z" fill="#28B446"/>
    <path d="M24.7442 12.072L21.8286 14.4589C21.0082 13.9461 20.0385 13.6499 18.9995 13.6499C16.6536 13.6499 14.6602 15.1601 13.9383 17.2613L11.0064 14.861H11.0059C12.5037 11.9731 15.5212 10 18.9995 10C21.1832 10 23.1855 10.7779 24.7442 12.072Z" fill="#F14336"/>
</g>
<g id="apple">
    <rect width="38" height="38" rx="3" fill="#2D2D2D"/>
    <path d="M16.5121 28C13.8332 27.9846 11.6172 22.516 11.6172 19.7309C11.6172 15.1816 15.03 14.1856 16.3452 14.1856C16.938 14.1856 17.5709 14.4183 18.1291 14.6243C18.5195 14.768 18.9233 14.9163 19.1478 14.9163C19.2822 14.9163 19.5989 14.7902 19.8786 14.6794C20.4749 14.442 21.217 14.147 22.0811 14.147C22.0827 14.147 22.0847 14.147 22.0863 14.147C22.7315 14.147 24.688 14.2886 25.8642 16.055L26.1397 16.469L25.7432 16.7682C25.1767 17.1957 24.1431 17.9753 24.1431 19.5198C24.1431 21.349 25.3137 22.0525 25.876 22.3908C26.1243 22.5402 26.3812 22.6942 26.3812 23.031C26.3812 23.2509 24.6262 27.9727 22.0775 27.9727C21.4539 27.9727 21.013 27.7853 20.6242 27.62C20.2308 27.4526 19.8914 27.3084 19.3306 27.3084C19.0463 27.3084 18.6868 27.4428 18.3063 27.5855C17.7862 27.7796 17.1975 28 16.5296 28H16.5121Z" fill="white"/>
    <path d="M22.3504 10C22.4168 12.3933 20.7052 14.0537 18.9956 13.9495C18.7139 12.0396 20.705 10 22.3504 10Z" fill="white"/>
</g>
<g id="vk">
    <rect width="38" height="38" rx="3" fill="#4D76A1"/>
    <path fill-rule="evenodd" clip-rule="evenodd" d="M18.7852 24.9498H19.9807C19.9807 24.9498 20.3418 24.9081 20.5262 24.699C20.6959 24.5071 20.6904 24.1468 20.6904 24.1468C20.6904 24.1468 20.6671 22.4597 21.4116 22.2112C22.1455 21.9665 23.0879 23.8418 24.0868 24.5628C24.8421 25.1085 25.4161 24.9889 25.4161 24.9889L28.087 24.9498C28.087 24.9498 29.4842 24.8592 28.8217 23.7039C28.7674 23.6093 28.4359 22.8492 26.8359 21.2871C25.1612 19.6523 25.3854 19.9167 27.4028 17.0888C28.6314 15.3666 29.1226 14.3152 28.9692 13.8648C28.8228 13.4359 27.9192 13.5493 27.9192 13.5493L24.9119 13.569C24.9119 13.569 24.689 13.537 24.5237 13.641C24.3621 13.7429 24.2581 13.9805 24.2581 13.9805C24.2581 13.9805 23.7822 15.3132 23.1474 16.4466C21.8082 18.8382 21.2728 18.9644 21.054 18.8159C20.5449 18.4698 20.672 17.4255 20.672 16.6836C20.672 14.366 21.0062 13.3997 20.0211 13.1495C19.6942 13.0664 19.4537 13.0116 18.6177 13.0027C17.5447 12.991 16.6365 13.0062 16.1222 13.2712C15.7801 13.4473 15.5162 13.84 15.6769 13.8626C15.8757 13.8905 16.3258 13.9902 16.5645 14.332C16.8727 14.7729 16.8618 15.7632 16.8618 15.7632C16.8618 15.7632 17.0388 18.4915 16.4483 18.8305C16.0429 19.0629 15.4869 18.5883 14.293 16.4186C13.6813 15.3072 13.2195 14.0787 13.2195 14.0787C13.2195 14.0787 13.1304 13.8491 12.9716 13.7263C12.7788 13.5776 12.5094 13.5302 12.5094 13.5302L9.65176 13.5499C9.65176 13.5499 9.22277 13.5624 9.06529 13.7586C8.92519 13.9331 9.05416 14.294 9.05416 14.294C9.05416 14.294 11.2914 19.7991 13.8247 22.5733C16.1475 25.1168 18.7852 24.9498 18.7852 24.9498Z" fill="white"/>
</g>
<g id="yandex">
    <rect x="0.5" y="0.5" width="37" height="37" rx="2.5" fill="white" stroke="#D6E0E4"/>
    <path d="M22.7796 10H20.2221C17.6312 10 15.0167 11.9133 15.0167 16.1877C15.0167 18.4018 15.9551 20.1262 17.6752 21.1068L14.5269 26.8054C14.3776 27.0749 14.3737 27.3803 14.5164 27.6224C14.6558 27.8588 14.9105 28 15.1977 28H16.7903C17.1521 28 17.4342 27.8251 17.5695 27.5188L20.5214 21.745H20.7368V27.2804C20.7368 27.6705 21.066 28 21.4556 28H22.8469C23.2838 28 23.5889 27.6949 23.5889 27.2581V10.7876C23.589 10.3239 23.2562 10 22.7796 10ZM20.7368 19.1802H20.3568C18.8832 19.1802 18.0035 17.9774 18.0035 15.9626C18.0035 13.4574 19.1148 12.5648 20.1548 12.5648H20.7368V19.1802Z" fill="#D7143A"/>
</g>


</svg>
