<svg width="16" height="16" viewBox="0 0 16 16" fill="none" xmlns="http://www.w3.org/2000/svg">
<path fill-rule="evenodd" clip-rule="evenodd" d="M3.33354 13.3335C2.86404 13.3335 2.55003 12.8654 2.70673 12.4392L2.73726 12.3687L3.50754 10.8281C3.79913 10.2449 3.96492 9.60785 3.99516 8.95812L4.00021 8.74113V6.66683C4.00021 4.68479 5.4418 3.03945 7.33367 2.72211L7.33354 2.00016C7.33354 1.63197 7.63202 1.3335 8.00021 1.3335C8.3684 1.3335 8.66688 1.63197 8.66688 2.00016L8.66741 2.72223C10.5064 3.03101 11.9198 4.59464 11.9969 6.50248L12.0002 6.66683V8.74113C12.0002 9.39316 12.1368 10.0371 12.4004 10.6318L12.4929 10.8281L13.2632 12.3687C13.4731 12.7886 13.1949 13.2788 12.7436 13.3292L12.6669 13.3335H9.33354C9.33354 14.0699 8.73659 14.6668 8.00021 14.6668C7.26383 14.6668 6.66688 14.0699 6.66688 13.3335H3.33354ZM8.00021 4.00016C6.57208 4.00016 5.40616 5.12281 5.33681 6.53374L5.33354 6.66683V8.74113C5.33354 9.59498 5.15131 10.4381 4.80008 11.2144L4.70011 11.4244L4.41223 12.0002H11.5882L11.3003 11.4244C10.9185 10.6607 10.7044 9.82512 10.6714 8.97369L10.6669 8.74113V6.66683C10.6669 5.19407 9.47297 4.00016 8.00021 4.00016Z" fill="#4192D9"/>
</svg>
