<?xml version="1.0" encoding="utf-8"?>
<svg viewBox="0 0 16 16" fill="none" xmlns="http://www.w3.org/2000/svg">
  <path d="M 2.344 1.899 L 9.118 1.899 C 9.689 1.899 10.155 2.529 10.155 3.305 L 10.155 5.18 L 9.463 5.18 L 9.463 3.305 C 9.463 3.046 9.308 2.836 9.118 2.836 L 2.344 2.836 C 2.153 2.836 1.998 3.046 1.998 3.305 L 1.998 12.492 C 1.998 12.751 2.153 12.961 2.344 12.961 L 9.118 12.961 C 9.308 12.961 9.463 12.751 9.463 12.492 L 9.463 10.617 L 10.155 10.617 L 10.155 12.492 C 10.155 13.268 9.689 13.899 9.118 13.899 L 2.344 13.899 C 1.772 13.899 1.307 13.268 1.307 12.492 L 1.307 3.305 C 1.307 2.529 1.772 1.899 2.344 1.899 Z" fill="white"/>
  <path d="M 11.064 4.742 L 11.064 7.3 L 5.368 7.3 L 5.368 8.646 L 11.064 8.646 L 11.064 11.204 L 15.168 7.973 L 11.064 4.742 Z" fill="white"/>
</svg>