<svg width="18" height="18" viewBox="0 0 18 18" fill="none" xmlns="http://www.w3.org/2000/svg">
<path fill-rule="evenodd" clip-rule="evenodd" d="M3.75 5.25C3.75 3.17893 5.42893 1.5 7.5 1.5C9.57107 1.5 11.25 3.17893 11.25 5.25L11.25 11.25C11.25 12.4926 10.2426 13.5 9 13.5C7.75736 13.5 6.75 12.4926 6.75 11.25L6.75 5.25C6.75 4.83578 7.08579 4.5 7.5 4.5C7.91421 4.5 8.25 4.83578 8.25 5.25L8.25 11.25L8.25505 11.3375C8.29837 11.7105 8.61537 12 9 12C9.38463 12 9.70163 11.7105 9.74495 11.3375L9.75 11.25L9.75 5.25C9.75 4.00736 8.74264 3 7.5 3C6.25736 3 5.25 4.00736 5.25 5.25L5.25 11.25C5.25 13.3211 6.92893 15 9 15C11.0166 15 12.6614 13.4083 12.7465 11.4127L12.75 11.25L12.75 5.25C12.75 4.83578 13.0858 4.5 13.5 4.5C13.9142 4.5 14.25 4.83578 14.25 5.25L14.25 11.25C14.25 14.1495 11.8995 16.5 9 16.5C6.1005 16.5 3.75 14.1495 3.75 11.25L3.75 5.25Z" fill="#4192D9"/>
</svg>
