<svg width="188" height="29" fill="none" xmlns="http://www.w3.org/2000/svg">
  <rect width="188" height="29" rx="3" fill="#F24831"/>
  <path d="M12.266 6.27v5.48H7.05v5.48h5.216v5.5h6.018v-5.5H23.5v-5.48h-5.216V6.27h-6.018ZM30.36 7.696h5.38c1.064 0 1.857.046 2.377.138.527.086.995.27 1.405.551.416.282.762.659 1.037 1.13.275.465.413.989.413 1.57 0 .631-.171 1.21-.514 1.737a3.13 3.13 0 0 1-1.377 1.185c.82.238 1.45.646 1.891 1.221.44.576.661 1.252.661 2.03 0 .612-.144 1.21-.431 1.791a3.59 3.59 0 0 1-1.166 1.387c-.49.343-1.096.554-1.818.634-.453.049-1.545.08-3.277.092h-4.58V7.696Zm2.718 2.242v3.113h1.78c1.06 0 1.717-.015 1.974-.046.465-.055.83-.214 1.092-.477.27-.27.404-.622.404-1.057 0-.416-.116-.753-.349-1.01-.226-.263-.566-.422-1.018-.478-.27-.03-1.044-.045-2.323-.045h-1.56Zm0 5.354v3.6h2.515c.979 0 1.6-.027 1.863-.082.404-.073.732-.25.982-.532.258-.288.386-.671.386-1.149 0-.404-.098-.747-.294-1.028-.196-.282-.48-.487-.853-.616-.368-.128-1.17-.193-2.405-.193h-2.194ZM43.135 7.696h2.718v7.293c0 1.158.033 1.908.1 2.25.117.552.392.996.827 1.332.44.331 1.04.496 1.799.496.771 0 1.352-.156 1.744-.468.392-.318.627-.707.707-1.166.08-.46.12-1.222.12-2.288V7.696h2.717v7.073c0 1.616-.074 2.758-.22 3.426-.148.667-.42 1.23-.818 1.69-.392.46-.918.826-1.579 1.102-.66.27-1.524.404-2.588.404-1.286 0-2.262-.147-2.929-.44-.66-.3-1.184-.686-1.57-1.158-.385-.478-.639-.977-.761-1.497-.178-.772-.267-1.91-.267-3.417V7.696ZM55.268 16.78l2.644-.257c.159.888.48 1.54.964 1.957.49.416 1.147.624 1.973.624.875 0 1.533-.183 1.974-.55.447-.374.67-.81.67-1.305 0-.319-.095-.588-.285-.808-.183-.227-.508-.423-.973-.588-.318-.11-1.043-.306-2.175-.588-1.457-.361-2.479-.805-3.066-1.332-.827-.74-1.24-1.644-1.24-2.71 0-.685.193-1.325.579-1.92.391-.6.951-1.055 1.68-1.368.734-.312 1.618-.468 2.653-.468 1.689 0 2.959.37 3.81 1.111.856.741 1.306 1.73 1.349 2.967l-2.718.12c-.116-.693-.367-1.189-.752-1.489-.38-.306-.952-.459-1.717-.459-.79 0-1.407.162-1.854.487a.981.981 0 0 0-.432.836c0 .318.135.59.404.817.343.288 1.175.588 2.497.9 1.322.313 2.298.637 2.928.974.637.33 1.133.787 1.487 1.369.362.575.542 1.289.542 2.14 0 .771-.214 1.494-.642 2.167-.429.674-1.035 1.176-1.818 1.507-.783.324-1.76.486-2.928.486-1.702 0-3.008-.391-3.92-1.175-.912-.79-1.457-1.938-1.634-3.445ZM67.63 21.162V7.696h2.717v13.466H67.63ZM72.19 21.162V7.696h2.643l5.508 8.993V7.696h2.524v13.466H80.14l-5.425-8.781v8.78h-2.525ZM84.964 21.162V7.696h9.978v2.278h-7.26v2.985h6.756v2.27H87.68v3.664H95.2v2.269H84.963ZM96.032 16.78l2.644-.257c.159.888.48 1.54.963 1.957.49.416 1.148.624 1.974.624.875 0 1.533-.183 1.974-.55.446-.374.67-.81.67-1.305 0-.319-.095-.588-.285-.808-.183-.227-.508-.423-.973-.588-.318-.11-1.043-.306-2.175-.588-1.457-.361-2.479-.805-3.066-1.332-.827-.74-1.24-1.644-1.24-2.71 0-.685.193-1.325.579-1.92.391-.6.951-1.055 1.68-1.368.734-.312 1.618-.468 2.652-.468 1.69 0 2.959.37 3.81 1.111.857.741 1.307 1.73 1.349 2.967l-2.717.12c-.116-.693-.367-1.189-.752-1.489-.38-.306-.952-.459-1.717-.459-.79 0-1.408.162-1.854.487a.981.981 0 0 0-.432.836c0 .318.135.59.404.817.343.288 1.175.588 2.497.9 1.322.313 2.298.637 2.928.974.637.33 1.132.787 1.487 1.369.361.575.542 1.289.542 2.14 0 .771-.214 1.494-.643 2.167-.428.674-1.034 1.176-1.817 1.507-.783.324-1.76.486-2.928.486-1.702 0-3.008-.391-3.92-1.175-.912-.79-1.457-1.938-1.634-3.445ZM107.788 16.78l2.644-.257c.159.888.48 1.54.964 1.957.489.416 1.147.624 1.973.624.875 0 1.533-.183 1.974-.55.447-.374.67-.81.67-1.305 0-.319-.095-.588-.285-.808-.183-.227-.508-.423-.973-.588-.318-.11-1.043-.306-2.175-.588-1.457-.361-2.479-.805-3.066-1.332-.826-.74-1.24-1.644-1.24-2.71 0-.685.193-1.325.579-1.92.391-.6.951-1.055 1.68-1.368.734-.312 1.618-.468 2.653-.468 1.689 0 2.959.37 3.809 1.111.857.741 1.307 1.73 1.35 2.967l-2.718.12c-.116-.693-.367-1.189-.752-1.489-.38-.306-.952-.459-1.717-.459-.789 0-1.407.162-1.854.487a.98.98 0 0 0-.432.836c0 .318.135.59.404.817.343.288 1.175.588 2.497.9 1.322.313 2.298.637 2.928.974.637.33 1.133.787 1.488 1.369.361.575.541 1.289.541 2.14a3.97 3.97 0 0 1-.642 2.167c-.429.674-1.035 1.176-1.818 1.507-.783.324-1.759.486-2.928.486-1.702 0-3.008-.391-3.92-1.175-.912-.79-1.457-1.938-1.634-3.445ZM136.12 21.162h-2.956l-1.175-3.059h-5.38l-1.11 3.059h-2.883l5.242-13.466h2.873l5.389 13.466Zm-5.003-5.328-1.855-4.996-1.817 4.996h3.672ZM136.098 16.78l2.644-.257c.159.888.48 1.54.964 1.957.489.416 1.147.624 1.973.624.875 0 1.533-.183 1.974-.55.447-.374.67-.81.67-1.305a1.2 1.2 0 0 0-.284-.808c-.184-.227-.508-.423-.974-.588-.318-.11-1.043-.306-2.175-.588-1.457-.361-2.479-.805-3.066-1.332-.826-.74-1.239-1.644-1.239-2.71 0-.685.192-1.325.578-1.92.392-.6.952-1.055 1.68-1.368.734-.312 1.619-.468 2.653-.468 1.689 0 2.959.37 3.809 1.111.857.741 1.307 1.73 1.35 2.967l-2.717.12c-.117-.693-.368-1.189-.753-1.489-.38-.306-.952-.459-1.717-.459-.789 0-1.407.162-1.854.487a.98.98 0 0 0-.432.836c0 .318.135.59.404.817.343.288 1.175.588 2.497.9 1.322.313 2.298.637 2.929.974a3.7 3.7 0 0 1 1.487 1.369c.361.575.541 1.289.541 2.14a3.97 3.97 0 0 1-.642 2.167c-.429.674-1.035 1.176-1.818 1.507-.783.324-1.759.486-2.928.486-1.701 0-3.008-.391-3.92-1.175-.912-.79-1.456-1.938-1.634-3.445ZM147.854 16.78l2.644-.257c.159.888.48 1.54.964 1.957.489.416 1.147.624 1.973.624.876 0 1.533-.183 1.974-.55.447-.374.67-.81.67-1.305a1.2 1.2 0 0 0-.284-.808c-.184-.227-.508-.423-.973-.588-.319-.11-1.044-.306-2.176-.588-1.456-.361-2.478-.805-3.066-1.332-.826-.74-1.239-1.644-1.239-2.71 0-.685.193-1.325.578-1.92.392-.6.952-1.055 1.68-1.368.734-.312 1.619-.468 2.653-.468 1.689 0 2.959.37 3.809 1.111.857.741 1.307 1.73 1.35 2.967l-2.717.12c-.117-.693-.368-1.189-.753-1.489-.379-.306-.952-.459-1.717-.459-.789 0-1.407.162-1.854.487a.98.98 0 0 0-.431.836c0 .318.134.59.404.817.342.288 1.175.588 2.496.9 1.322.313 2.298.637 2.929.974a3.7 3.7 0 0 1 1.487 1.369c.361.575.541 1.289.541 2.14a3.97 3.97 0 0 1-.642 2.167c-.429.674-1.034 1.176-1.818 1.507-.783.324-1.759.486-2.928.486-1.701 0-3.008-.391-3.92-1.175-.912-.79-1.456-1.938-1.634-3.445ZM160.299 21.162V7.696h9.978v2.278h-7.261v2.985h6.756v2.27h-6.756v3.664h7.518v2.269h-10.235ZM175.084 21.162V9.974h-3.993V7.696h10.694v2.278h-3.984v11.188h-2.717Z" fill="#fff"/>
</svg>
