<svg width="240" height="37" viewBox="0 0 240 37" fill="none" xmlns="http://www.w3.org/2000/svg">
<rect width="240" height="37" rx="3" fill="#F24831"/>
<path d="M15.6585 8V14.9915H9V21.9829H15.6585V29H23.3415V21.9829H30V14.9915H23.3415V8H15.6585Z" fill="white"/>
<path d="M38.7578 9.82031H45.625C46.9844 9.82031 47.9961 9.87891 48.6602 9.99609C49.332 10.1055 49.9297 10.3398 50.4531 10.6992C50.9844 11.0586 51.4258 11.5391 51.7773 12.1406C52.1289 12.7344 52.3047 13.4023 52.3047 14.1445C52.3047 14.9492 52.0859 15.6875 51.6484 16.3594C51.2188 17.0312 50.6328 17.5352 49.8906 17.8711C50.9375 18.1758 51.7422 18.6953 52.3047 19.4297C52.8672 20.1641 53.1484 21.0273 53.1484 22.0195C53.1484 22.8008 52.9648 23.5625 52.5977 24.3047C52.2383 25.0391 51.7422 25.6289 51.1094 26.0742C50.4844 26.5117 49.7109 26.7812 48.7891 26.8828C48.2109 26.9453 46.8164 26.9844 44.6055 27H38.7578V9.82031ZM42.2266 12.6797V16.6523H44.5C45.8516 16.6523 46.6914 16.6328 47.0195 16.5938C47.6133 16.5234 48.0781 16.3203 48.4141 15.9844C48.7578 15.6406 48.9297 15.1914 48.9297 14.6367C48.9297 14.1055 48.7812 13.6758 48.4844 13.3477C48.1953 13.0117 47.7617 12.8086 47.1836 12.7383C46.8398 12.6992 45.8516 12.6797 44.2188 12.6797H42.2266ZM42.2266 19.5117V24.1055H45.4375C46.6875 24.1055 47.4805 24.0703 47.8164 24C48.332 23.9062 48.75 23.6797 49.0703 23.3203C49.3984 22.9531 49.5625 22.4648 49.5625 21.8555C49.5625 21.3398 49.4375 20.9023 49.1875 20.543C48.9375 20.1836 48.5742 19.9219 48.0977 19.7578C47.6289 19.5938 46.6055 19.5117 45.0273 19.5117H42.2266Z" fill="white"/>
<path d="M55.0664 9.82031H58.5352V19.125C58.5352 20.6016 58.5781 21.5586 58.6641 21.9961C58.8125 22.6992 59.1641 23.2656 59.7188 23.6953C60.2812 24.1172 61.0469 24.3281 62.0156 24.3281C63 24.3281 63.7422 24.1289 64.2422 23.7305C64.7422 23.3242 65.043 22.8281 65.1445 22.2422C65.2461 21.6562 65.2969 20.6836 65.2969 19.3242V9.82031H68.7656V18.8438C68.7656 20.9062 68.6719 22.3633 68.4844 23.2148C68.2969 24.0664 67.9492 24.7852 67.4414 25.3711C66.9414 25.957 66.2695 26.4258 65.4258 26.7773C64.582 27.1211 63.4805 27.293 62.1211 27.293C60.4805 27.293 59.2344 27.1055 58.3828 26.7305C57.5391 26.3477 56.8711 25.8555 56.3789 25.2539C55.8867 24.6445 55.5625 24.0078 55.4062 23.3438C55.1797 22.3594 55.0664 20.9062 55.0664 18.9844V9.82031Z" fill="white"/>
<path d="M70.5547 21.4102L73.9297 21.082C74.1328 22.2148 74.543 23.0469 75.1602 23.5781C75.7852 24.1094 76.625 24.375 77.6797 24.375C78.7969 24.375 79.6367 24.1406 80.1992 23.6719C80.7695 23.1953 81.0547 22.6406 81.0547 22.0078C81.0547 21.6016 80.9336 21.2578 80.6914 20.9766C80.457 20.6875 80.043 20.4375 79.4492 20.2266C79.043 20.0859 78.1172 19.8359 76.6719 19.4766C74.8125 19.0156 73.5078 18.4492 72.7578 17.7773C71.7031 16.832 71.1758 15.6797 71.1758 14.3203C71.1758 13.4453 71.4219 12.6289 71.9141 11.8711C72.4141 11.1055 73.1289 10.5234 74.0586 10.125C74.9961 9.72656 76.125 9.52734 77.4453 9.52734C79.6016 9.52734 81.2227 10 82.3086 10.9453C83.4023 11.8906 83.9766 13.1523 84.0312 14.7305L80.5625 14.8828C80.4141 14 80.0938 13.3672 79.6016 12.9844C79.1172 12.5938 78.3867 12.3984 77.4102 12.3984C76.4023 12.3984 75.6133 12.6055 75.043 13.0195C74.6758 13.2852 74.4922 13.6406 74.4922 14.0859C74.4922 14.4922 74.6641 14.8398 75.0078 15.1289C75.4453 15.4961 76.5078 15.8789 78.1953 16.2773C79.8828 16.6758 81.1289 17.0898 81.9336 17.5195C82.7461 17.9414 83.3789 18.5234 83.832 19.2656C84.293 20 84.5234 20.9102 84.5234 21.9961C84.5234 22.9805 84.25 23.9023 83.7031 24.7617C83.1562 25.6211 82.3828 26.2617 81.3828 26.6836C80.3828 27.0977 79.1367 27.3047 77.6445 27.3047C75.4727 27.3047 73.8047 26.8047 72.6406 25.8047C71.4766 24.7969 70.7812 23.332 70.5547 21.4102Z" fill="white"/>
<path d="M86.3359 27V9.82031H89.8047V27H86.3359Z" fill="white"/>
<path d="M92.1562 27V9.82031H95.5312L102.562 21.293V9.82031H105.785V27H102.305L95.3789 15.7969V27H92.1562Z" fill="white"/>
<path d="M108.465 27V9.82031H121.203V12.7266H111.934V16.5352H120.559V19.4297H111.934V24.1055H121.531V27H108.465Z" fill="white"/>
<path d="M122.594 21.4102L125.969 21.082C126.172 22.2148 126.582 23.0469 127.199 23.5781C127.824 24.1094 128.664 24.375 129.719 24.375C130.836 24.375 131.676 24.1406 132.238 23.6719C132.809 23.1953 133.094 22.6406 133.094 22.0078C133.094 21.6016 132.973 21.2578 132.73 20.9766C132.496 20.6875 132.082 20.4375 131.488 20.2266C131.082 20.0859 130.156 19.8359 128.711 19.4766C126.852 19.0156 125.547 18.4492 124.797 17.7773C123.742 16.832 123.215 15.6797 123.215 14.3203C123.215 13.4453 123.461 12.6289 123.953 11.8711C124.453 11.1055 125.168 10.5234 126.098 10.125C127.035 9.72656 128.164 9.52734 129.484 9.52734C131.641 9.52734 133.262 10 134.348 10.9453C135.441 11.8906 136.016 13.1523 136.07 14.7305L132.602 14.8828C132.453 14 132.133 13.3672 131.641 12.9844C131.156 12.5938 130.426 12.3984 129.449 12.3984C128.441 12.3984 127.652 12.6055 127.082 13.0195C126.715 13.2852 126.531 13.6406 126.531 14.0859C126.531 14.4922 126.703 14.8398 127.047 15.1289C127.484 15.4961 128.547 15.8789 130.234 16.2773C131.922 16.6758 133.168 17.0898 133.973 17.5195C134.785 17.9414 135.418 18.5234 135.871 19.2656C136.332 20 136.562 20.9102 136.562 21.9961C136.562 22.9805 136.289 23.9023 135.742 24.7617C135.195 25.6211 134.422 26.2617 133.422 26.6836C132.422 27.0977 131.176 27.3047 129.684 27.3047C127.512 27.3047 125.844 26.8047 124.68 25.8047C123.516 24.7969 122.82 23.332 122.594 21.4102Z" fill="white"/>
<path d="M137.602 21.4102L140.977 21.082C141.18 22.2148 141.59 23.0469 142.207 23.5781C142.832 24.1094 143.672 24.375 144.727 24.375C145.844 24.375 146.684 24.1406 147.246 23.6719C147.816 23.1953 148.102 22.6406 148.102 22.0078C148.102 21.6016 147.98 21.2578 147.738 20.9766C147.504 20.6875 147.09 20.4375 146.496 20.2266C146.09 20.0859 145.164 19.8359 143.719 19.4766C141.859 19.0156 140.555 18.4492 139.805 17.7773C138.75 16.832 138.223 15.6797 138.223 14.3203C138.223 13.4453 138.469 12.6289 138.961 11.8711C139.461 11.1055 140.176 10.5234 141.105 10.125C142.043 9.72656 143.172 9.52734 144.492 9.52734C146.648 9.52734 148.27 10 149.355 10.9453C150.449 11.8906 151.023 13.1523 151.078 14.7305L147.609 14.8828C147.461 14 147.141 13.3672 146.648 12.9844C146.164 12.5938 145.434 12.3984 144.457 12.3984C143.449 12.3984 142.66 12.6055 142.09 13.0195C141.723 13.2852 141.539 13.6406 141.539 14.0859C141.539 14.4922 141.711 14.8398 142.055 15.1289C142.492 15.4961 143.555 15.8789 145.242 16.2773C146.93 16.6758 148.176 17.0898 148.98 17.5195C149.793 17.9414 150.426 18.5234 150.879 19.2656C151.34 20 151.57 20.9102 151.57 21.9961C151.57 22.9805 151.297 23.9023 150.75 24.7617C150.203 25.6211 149.43 26.2617 148.43 26.6836C147.43 27.0977 146.184 27.3047 144.691 27.3047C142.52 27.3047 140.852 26.8047 139.688 25.8047C138.523 24.7969 137.828 23.332 137.602 21.4102Z" fill="white"/>
<path d="M173.77 27H169.996L168.496 23.0977H161.629L160.211 27H156.531L163.223 9.82031H166.891L173.77 27ZM167.383 20.2031L165.016 13.8281L162.695 20.2031H167.383Z" fill="white"/>
<path d="M173.742 21.4102L177.117 21.082C177.32 22.2148 177.73 23.0469 178.348 23.5781C178.973 24.1094 179.812 24.375 180.867 24.375C181.984 24.375 182.824 24.1406 183.387 23.6719C183.957 23.1953 184.242 22.6406 184.242 22.0078C184.242 21.6016 184.121 21.2578 183.879 20.9766C183.645 20.6875 183.23 20.4375 182.637 20.2266C182.23 20.0859 181.305 19.8359 179.859 19.4766C178 19.0156 176.695 18.4492 175.945 17.7773C174.891 16.832 174.363 15.6797 174.363 14.3203C174.363 13.4453 174.609 12.6289 175.102 11.8711C175.602 11.1055 176.316 10.5234 177.246 10.125C178.184 9.72656 179.312 9.52734 180.633 9.52734C182.789 9.52734 184.41 10 185.496 10.9453C186.59 11.8906 187.164 13.1523 187.219 14.7305L183.75 14.8828C183.602 14 183.281 13.3672 182.789 12.9844C182.305 12.5938 181.574 12.3984 180.598 12.3984C179.59 12.3984 178.801 12.6055 178.23 13.0195C177.863 13.2852 177.68 13.6406 177.68 14.0859C177.68 14.4922 177.852 14.8398 178.195 15.1289C178.633 15.4961 179.695 15.8789 181.383 16.2773C183.07 16.6758 184.316 17.0898 185.121 17.5195C185.934 17.9414 186.566 18.5234 187.02 19.2656C187.48 20 187.711 20.9102 187.711 21.9961C187.711 22.9805 187.438 23.9023 186.891 24.7617C186.344 25.6211 185.57 26.2617 184.57 26.6836C183.57 27.0977 182.324 27.3047 180.832 27.3047C178.66 27.3047 176.992 26.8047 175.828 25.8047C174.664 24.7969 173.969 23.332 173.742 21.4102Z" fill="white"/>
<path d="M188.75 21.4102L192.125 21.082C192.328 22.2148 192.738 23.0469 193.355 23.5781C193.98 24.1094 194.82 24.375 195.875 24.375C196.992 24.375 197.832 24.1406 198.395 23.6719C198.965 23.1953 199.25 22.6406 199.25 22.0078C199.25 21.6016 199.129 21.2578 198.887 20.9766C198.652 20.6875 198.238 20.4375 197.645 20.2266C197.238 20.0859 196.312 19.8359 194.867 19.4766C193.008 19.0156 191.703 18.4492 190.953 17.7773C189.898 16.832 189.371 15.6797 189.371 14.3203C189.371 13.4453 189.617 12.6289 190.109 11.8711C190.609 11.1055 191.324 10.5234 192.254 10.125C193.191 9.72656 194.32 9.52734 195.641 9.52734C197.797 9.52734 199.418 10 200.504 10.9453C201.598 11.8906 202.172 13.1523 202.227 14.7305L198.758 14.8828C198.609 14 198.289 13.3672 197.797 12.9844C197.312 12.5938 196.582 12.3984 195.605 12.3984C194.598 12.3984 193.809 12.6055 193.238 13.0195C192.871 13.2852 192.688 13.6406 192.688 14.0859C192.688 14.4922 192.859 14.8398 193.203 15.1289C193.641 15.4961 194.703 15.8789 196.391 16.2773C198.078 16.6758 199.324 17.0898 200.129 17.5195C200.941 17.9414 201.574 18.5234 202.027 19.2656C202.488 20 202.719 20.9102 202.719 21.9961C202.719 22.9805 202.445 23.9023 201.898 24.7617C201.352 25.6211 200.578 26.2617 199.578 26.6836C198.578 27.0977 197.332 27.3047 195.84 27.3047C193.668 27.3047 192 26.8047 190.836 25.8047C189.672 24.7969 188.977 23.332 188.75 21.4102Z" fill="white"/>
<path d="M204.637 27V9.82031H217.375V12.7266H208.105V16.5352H216.73V19.4297H208.105V24.1055H217.703V27H204.637Z" fill="white"/>
<path d="M223.512 27V12.7266H218.414V9.82031H232.066V12.7266H226.98V27H223.512Z" fill="white"/>
</svg>
